<?xml version="1.0" encoding="utf-8"?>
<!-- Generator: Adobe Illustrator 26.5.0, SVG Export Plug-In . SVG Version: 6.00 Build 0)  -->
<svg version="1.1" id="Слой_1" xmlns="http://www.w3.org/2000/svg" xmlns:xlink="http://www.w3.org/1999/xlink" x="0px" y="0px"
	 viewBox="0 0 67 67" style="enable-background:new 0 0 67 67;" xml:space="preserve">
<style type="text/css">
	.st0{fill:url(#SVGID_1_);stroke:#FFFFFF;stroke-width:3;stroke-miterlimit:10;}
	.st1{fill:#FFFFFF;}
</style>
<g>
	
		<radialGradient id="SVGID_1_" cx="-1018.6234" cy="-2044.3522" r="96.9016" gradientTransform="matrix(0.6435 -0.7654 -0.3122 -0.2625 31.9861 -1237.8374)" gradientUnits="userSpaceOnUse">
		<stop  offset="7.300000e-02" style="stop-color:#EACC7B"/>
		<stop  offset="0.184" style="stop-color:#ECAA59"/>
		<stop  offset="0.307" style="stop-color:#EF802E"/>
		<stop  offset="0.358" style="stop-color:#EF6D3A"/>
		<stop  offset="0.46" style="stop-color:#F04B50"/>
		<stop  offset="0.516" style="stop-color:#F03E58"/>
		<stop  offset="0.689" style="stop-color:#DB359E"/>
		<stop  offset="0.724" style="stop-color:#CE37A4"/>
		<stop  offset="0.789" style="stop-color:#AC3CB4"/>
		<stop  offset="0.877" style="stop-color:#7544CF"/>
		<stop  offset="0.98" style="stop-color:#2B4FF2"/>
	</radialGradient>
	<path class="st0" d="M51.6,65.5H15.4c-7.6,0-13.9-6.3-13.9-13.9V15.4c0-7.6,6.3-13.9,13.9-13.9h36.2c7.6,0,13.9,6.3,13.9,13.9v36.2
		C65.5,59.2,59.2,65.5,51.6,65.5z"/>
	<path class="st1" d="M33.5,14c6.4,0,7.1,0,9.6,0.1c2.4,0.1,3.6,0.6,4.5,0.8c1.1,0.4,1.9,1,2.8,1.8c0.8,0.8,1.4,1.7,1.8,2.8
		c0.3,0.8,0.7,2.1,0.8,4.5c0,2.4,0,3.1,0,9.5s0,7.1-0.1,9.6c-0.1,2.4-0.6,3.6-0.8,4.5c-0.4,1.1-1,1.9-1.8,2.8
		c-0.8,0.8-1.7,1.4-2.8,1.8c-0.8,0.3-2.1,0.7-4.5,0.8c-2.4,0-3.1,0-9.5,0s-7.1,0-9.6-0.1c-2.4-0.1-3.6-0.6-4.5-0.8
		c-1.1-0.4-1.9-1-2.8-1.8c-0.8-0.8-1.4-1.7-1.8-2.8c-0.3-0.8-0.7-2.1-0.8-4.5c0-2.4,0-3.1,0-9.5s0-7.1,0.1-9.6
		c0.1-2.4,0.6-3.6,0.8-4.5c0.4-1.1,1-1.9,1.8-2.8c0.8-0.8,1.7-1.4,2.8-1.8c0.8-0.3,2.1-0.7,4.5-0.8C26.4,14,27.1,14,33.5,14
		 M33.5,9.8c-6.4,0-7.2,0-9.7,0.1s-4.2,0.6-5.7,1.1s-2.9,1.4-4.2,2.8s-2.1,2.6-2.8,4.2c-0.6,1.5-1,3.2-1.1,5.7S9.9,27,9.9,33.4
		s0,7.2,0.1,9.7s0.6,4.2,1.1,5.7c0.6,1.5,1.4,2.9,2.8,4.2c1.3,1.3,2.6,2.1,4.2,2.8c1.5,0.6,3.2,1,5.7,1.1s3.3,0.1,9.7,0.1
		s7.2,0,9.7-0.1s4.2-0.6,5.7-1.1c1.5-0.6,2.9-1.4,4.2-2.8c1.3-1.3,2.1-2.6,2.8-4.2c0.6-1.5,1-3.2,1.1-5.7s0.1-3.3,0.1-9.7
		s0-7.2-0.1-9.7s-0.6-4.2-1.1-5.7c-0.6-1.5-1.4-2.9-2.8-4.2s-2.6-2.1-4.2-2.8c-1.5-0.6-3.2-1-5.7-1.1C40.7,9.8,39.9,9.8,33.5,9.8
		L33.5,9.8z"/>
	<path class="st1" d="M33.5,21c-7,0-12.5,5.6-12.5,12.5S26.5,46,33.5,46S46,40.5,46,33.5S40.5,21,33.5,21z M33.5,41.8
		c-4.6,0-8.3-3.8-8.3-8.3s3.8-8.3,8.3-8.3s8.3,3.8,8.3,8.3S38.1,41.8,33.5,41.8z"/>
	<circle class="st1" cx="46" cy="21" r="2.8"/>
</g>
</svg>
