<?xml version="1.0" encoding="utf-8"?>
<!-- Generator: Adobe Illustrator 26.5.0, SVG Export Plug-In . SVG Version: 6.00 Build 0)  -->
<svg version="1.1" id="Слой_1" xmlns="http://www.w3.org/2000/svg" xmlns:xlink="http://www.w3.org/1999/xlink" x="0px" y="0px"
	 viewBox="0 0 565 565" style="enable-background:new 0 0 565 565;" xml:space="preserve">
<style type="text/css">
	.st0{fill:url(#SVGID_1_);}
	.st1{fill:#FFFFFF;}
	.st2{fill-rule:evenodd;clip-rule:evenodd;fill:#FFFFFF;}
</style>
<g id="OBJECTS">
	<g>
		<g>
			
				<linearGradient id="SVGID_1_" gradientUnits="userSpaceOnUse" x1="282.5" y1="347.0002" x2="282.5" y2="882.0002" gradientTransform="matrix(1 0 0 1 0 -332)">
				<stop  offset="0" style="stop-color:#4AC14B"/>
				<stop  offset="1" style="stop-color:#06853A"/>
			</linearGradient>
			<path class="st0" d="M80.7,550C44.5,550,15,520.5,15,484.3V80.7C15,44.5,44.5,15,80.7,15h403.6c36.2,0,65.7,29.5,65.7,65.7v403.6
				c0,36.2-29.5,65.7-65.7,65.7H80.7z"/>
			<path class="st1" d="M484.3,30c28,0,50.7,22.7,50.7,50.7v403.6c0,28-22.7,50.7-50.7,50.7H80.7c-28,0-50.7-22.7-50.7-50.7V80.7
				C30,52.7,52.7,30,80.7,30H484.3 M484.3,0H80.7C36.2,0,0,36.2,0,80.7v403.6C0,528.8,36.2,565,80.7,565h403.6
				c44.5,0,80.7-36.2,80.7-80.7V80.7C565,36.2,528.8,0,484.3,0L484.3,0z"/>
		</g>
	</g>
	<g>
		<path class="st2" d="M139.5,364.2c-15.6-26-23.8-55.7-23.8-86.1c0-93,76.2-168.6,169.9-168.6s169.9,75.7,169.9,168.6v2.5l0,0
			c-1.4,91.8-77,166.1-169.8,166.1h-0.2c-28.2,0-56.1-7.1-80.9-20.5l-96.4,30.6L139.5,364.2z M209.6,392.6
			c22.6,14.8,48.8,22.7,75.9,22.7h0.2c76.2,0,138.2-61.5,138.2-137.1s-62-137.1-138.2-137.1s-138.2,61.5-138.2,137.1
			c0,29.1,9.1,56.9,26.3,80.4l0.8,1L158.2,408l50.5-16L209.6,392.6z M330.9,359c-5.1,0-14.3-1.3-41-11.8
			c-25.3-9.9-50.3-31.6-70.3-61.1c-0.4-0.6-0.7-1-0.8-1.2c-5.2-6.8-17.2-24.8-17.2-43.6c0-19.7,10-30.3,14.2-34.8
			c0.3-0.3,0.5-0.6,0.8-0.8c4.2-4.6,12.3-5.7,13.5-5.9c2.3-0.4,4.7-0.6,7.1-0.7h0.7c3.7,0,7.5,1.1,11,9.4c1.1,2.6,2.7,6.5,4.4,10.6
			c3.4,8.1,7.5,18.2,8.2,19.5c0.6,1.2,2.6,5,0.4,9.4c-0.2,0.4-0.4,0.8-0.6,1.2c-1,2.1-1.9,3.9-3.8,6.1c-0.7,0.8-1.4,1.7-2.1,2.5
			c-1.4,1.7-2.9,3.4-4.1,4.7c-2.1,2.1-2.8,3-1.4,5.3c2.9,4.9,10.9,17.5,22.3,27.6c12.8,11.3,23.7,16,29.6,18.5
			c1.2,0.5,2.2,0.9,2.9,1.3c1.4,0.7,2.5,1.1,3.4,1.1c0.6,0,1.4-0.2,2.5-1.5c3-3.4,10.3-12.1,12.8-15.8c1.9-2.8,4.2-4.1,6.9-4.1
			c1.8,0,3.6,0.6,5.2,1.2c4,1.5,25.2,11.8,28.3,13.4c0.8,0.4,1.6,0.8,2.3,1.1c1.8,0.8,3.2,1.5,4.4,2.4l0.5-0.5l1.7,2.7
			c1.7,2.8,1.2,12.1-2.2,21.5c-3.9,10.9-21.9,20.3-29.8,21c-1.1,0.1-2,0.3-3.1,0.6C335.5,358.5,333.6,359,330.9,359z"/>
		<path class="st1" d="M285.6,112C378,112,453,186.4,453,278.1l0,0c0,91.7-74.9,166.1-167.3,166.1c-0.1,0-0.2,0-0.2,0
			c-28.2,0-55.9-7.1-80.7-20.7L112.1,453l30.2-89.1c-15.7-25.8-24-55.5-24-85.8C118.2,186.4,193.2,112,285.6,112 M154.1,411.8
			l54.1-17.2c22.9,15.1,49.8,23.1,77.2,23.1c0.1,0,0.1,0,0.2,0c77.6,0,140.7-62.6,140.7-139.6s-63.1-139.6-140.7-139.6
			s-140.7,62.6-140.7,139.6c0,29.4,9.4,58.1,26.8,81.9L154.1,411.8 M237.7,201.6c2.4,0,5.5,0.3,8.7,7.8c3.4,8.2,11.6,28.2,12.6,30.2
			s1.7,4.4,0.4,7.1c-1.3,2.7-2,4.4-4.1,6.8c-2.1,2.4-4.3,5.3-6.2,7.1c-2,2-4.2,4.2-1.8,8.3s10.6,17.4,22.8,28.2
			c15.7,13.8,28.9,18.1,33,20.2c1.8,0.9,3.2,1.3,4.5,1.3c1.7,0,3-0.8,4.4-2.3c2.4-2.8,10.3-12,13-16c1.5-2.3,3.1-3,4.8-3
			c1.3,0,2.8,0.5,4.4,1c3.7,1.3,23.9,11.2,28,13.2c4.1,2,6.9,3.1,7.9,4.8l0,0c1,1.7,1,9.8-2.4,19.3c-3.4,9.5-20.2,18.7-27.7,19.4
			c-3.2,0.3-5,1.4-9.2,1.4c-5.7,0-15.9-2.1-40.1-11.6c-41.7-16.3-68-58.8-70.1-61.5c-2.1-2.7-16.7-22.1-16.7-42.1
			s10.6-29.9,14.4-33.9c3.8-4.1,12-5.1,12-5.1c2.3-0.4,4.5-0.6,6.8-0.7C237.3,201.6,237.5,201.6,237.7,201.6 M285.6,107
			c-46,0-89.3,17.8-121.9,50.1c-15.8,15.7-28.3,34-36.9,54.4c-9,21.1-13.6,43.5-13.6,66.6c0,30.4,8.1,60.2,23.5,86.3l-29.5,86.9
			l-3.2,9.4l9.4-3l90.6-28.8c24.9,13.3,52.9,20.3,81.2,20.3h0.3c46,0,89.3-17.8,121.9-50.1c15.8-15.7,28.3-34,36.9-54.4
			c8.3-19.6,12.9-40.3,13.5-61.6h0.1v-5c0-23.1-4.6-45.5-13.5-66.6c-8.7-20.4-21.1-38.7-36.9-54.4C374.9,124.8,331.7,107,285.6,107
			L285.6,107z M162,404.1l14.4-42.5l0.8-2.5l-1.5-2.1c-16.9-23-25.8-50.3-25.8-78.9c0-74.2,60.9-134.6,135.7-134.6
			s135.7,60.4,135.7,134.6s-60.9,134.6-135.7,134.6h-0.2c-26.5,0-52.3-7.7-74.5-22.3l-2-1.3l-2.3,0.7L162,404.1L162,404.1z
			 M237.7,196.6h-0.3h-0.2h-0.1H237c-2.4,0.1-4.9,0.4-7.3,0.8c-1.4,0.2-10.2,1.5-15,6.6c-0.2,0.2-0.5,0.5-0.8,0.8
			c-4.5,4.7-14.9,15.8-14.9,36.5c0,19.6,12.4,38.1,17.8,45.1c0.1,0.2,0.4,0.6,0.8,1.1c20.4,29.9,45.7,51.9,71.5,62
			c26.9,10.5,36.3,11.9,41.9,11.9c3.1,0,5.2-0.5,6.9-0.9c1-0.2,1.8-0.4,2.7-0.5c8.6-0.8,27.6-10.7,31.9-22.6
			c2.9-8.2,4.6-19.2,2-23.6l-3.3-5.4l-1.4,1.4c-0.9-0.5-1.9-1-3-1.5c-0.7-0.3-1.5-0.7-2.3-1.1c-3.2-1.6-24.4-12-28.5-13.5
			c-1.8-0.6-3.9-1.3-6.1-1.3c-3.6,0-6.6,1.8-9,5.2c-2.4,3.6-9.7,12.1-12.6,15.5c-0.3,0.4-0.6,0.6-0.7,0.6c-0.2,0-0.8-0.1-2.2-0.8
			c-0.8-0.4-1.8-0.8-3-1.4c-5.7-2.5-16.4-7.1-28.9-18.1c-11.1-9.9-19-22.2-21.8-27c-0.2-0.4-0.3-0.6-0.3-0.7
			c0.2-0.4,0.9-1.1,1.4-1.5c1.4-1.4,2.9-3.1,4.3-4.9c0.7-0.8,1.4-1.7,2.1-2.5c2.2-2.5,3.1-4.5,4.2-6.6c0.2-0.4,0.4-0.8,0.6-1.2
			c2.8-5.5,0.4-10.1-0.4-11.6c-0.6-1.3-5-11.7-8.1-19.3c-1.7-4.1-3.3-7.9-4.4-10.6C246.9,197.8,241.8,196.6,237.7,196.6L237.7,196.6
			z"/>
	</g>
</g>
</svg>
