<svg xmlns="http://www.w3.org/2000/svg" xmlns:xlink="http://www.w3.org/1999/xlink" viewBox="0 0 500 500"><defs><style>.cls-1,.cls-3{fill:#fff;}.cls-2{fill:url(#Degradado_sin_nombre_13);}.cls-3{fill-rule:evenodd;}</style><linearGradient id="Degradado_sin_nombre_13" x1="250" x2="250" y2="500" gradientUnits="userSpaceOnUse"><stop offset="0" stop-color="#4ac14b"/><stop offset="1" stop-color="#06853a"/></linearGradient></defs><g id="BACKGROUND"><rect class="cls-1" width="500" height="500"/></g><g id="OBJECTS"><rect class="cls-2" width="500" height="500" rx="48.19"/><path class="cls-3" d="M420.46,245.62c0,91.7-74.92,166.06-167.35,166.06A167.66,167.66,0,0,1,172.2,391L79.54,420.46l30.2-89.09a164.35,164.35,0,0,1-24-85.75c0-91.73,74.93-166.08,167.38-166.08s167.35,74.35,167.35,166.08ZM253.11,106c-77.61,0-140.72,62.62-140.72,139.63a138.2,138.2,0,0,0,26.8,81.86l-17.57,51.85,54.06-17.18a140.77,140.77,0,0,0,77.43,23.08c77.57,0,140.7-62.63,140.7-139.61S330.68,106,253.11,106Zm84.51,177.88c-1-1.7-3.78-2.72-7.86-4.76s-24.29-11.89-28-13.24-6.51-2-9.23,2-10.6,13.25-13,16-4.78,3.05-8.88,1-17.34-6.34-33-20.19c-12.19-10.81-20.42-24.12-22.83-28.19s-.24-6.27,1.8-8.31c1.85-1.83,4.1-4.75,6.16-7.12s2.73-4.09,4.1-6.81.69-5.08-.35-7.12-9.23-22.06-12.65-30.22-6.83-7.83-9.23-7.83a59.1,59.1,0,0,0-6.82.71s-8.22,1-12,5.09-14.36,13.92-14.36,33.94,14.69,39.39,16.74,42.09,28.38,45.17,70.09,61.47,41.71,10.86,49.23,10.17,24.27-9.84,27.69-19.35,3.43-17.66,2.41-19.34Zm0,0" transform="translate(0 0)"/></g></svg>