<?xml version="1.0" encoding="utf-8"?>
<!-- Generator: Adobe Illustrator 25.0.1, SVG Export Plug-In . SVG Version: 6.00 Build 0)  -->
<svg version="1.1" id="Слой_1" xmlns="http://www.w3.org/2000/svg" xmlns:xlink="http://www.w3.org/1999/xlink" x="0px" y="0px"
	 viewBox="0 0 64 64" style="enable-background:new 0 0 64 64;" xml:space="preserve">
<style type="text/css">
	.st0{fill:url(#SVGID_1_);}
	.st1{fill:#FFFFFF;}
</style>
<radialGradient id="SVGID_1_" cx="-236.4756" cy="-250.3907" r="96.9016" gradientTransform="matrix(0.6435 -0.7654 -0.5056 -0.4251 38.8043 -210.5065)" gradientUnits="userSpaceOnUse">
	<stop  offset="7.300000e-02" style="stop-color:#EACC7B"/>
	<stop  offset="0.184" style="stop-color:#ECAA59"/>
	<stop  offset="0.307" style="stop-color:#EF802E"/>
	<stop  offset="0.358" style="stop-color:#EF6D3A"/>
	<stop  offset="0.46" style="stop-color:#F04B50"/>
	<stop  offset="0.516" style="stop-color:#F03E58"/>
	<stop  offset="0.689" style="stop-color:#DB359E"/>
	<stop  offset="0.724" style="stop-color:#CE37A4"/>
	<stop  offset="0.789" style="stop-color:#AC3CB4"/>
	<stop  offset="0.877" style="stop-color:#7544CF"/>
	<stop  offset="0.98" style="stop-color:#2B4FF2"/>
</radialGradient>
<path class="st0" d="M50.1,64H13.9C6.3,64,0,57.7,0,50.1V13.9C0,6.3,6.3,0,13.9,0h36.2C57.7,0,64,6.3,64,13.9v36.2
	C64,57.7,57.7,64,50.1,64z"/>
<path class="st1" d="M32,12.5c6.4,0,7.1,0,9.6,0.1c2.4,0.1,3.6,0.6,4.5,0.8c1.1,0.4,1.9,1,2.8,1.8c0.8,0.8,1.4,1.7,1.8,2.8
	c0.3,0.8,0.7,2.1,0.8,4.5c0,2.4,0,3.1,0,9.5s0,7.1-0.1,9.6c-0.1,2.4-0.6,3.6-0.8,4.5c-0.4,1.1-1,1.9-1.8,2.8
	c-0.8,0.8-1.7,1.4-2.8,1.8c-0.8,0.3-2.1,0.7-4.5,0.8c-2.4,0-3.1,0-9.5,0s-7.1,0-9.6-0.1c-2.4-0.1-3.6-0.6-4.5-0.8
	c-1.1-0.4-1.9-1-2.8-1.8c-0.8-0.8-1.4-1.7-1.8-2.8c-0.3-0.8-0.7-2.1-0.8-4.5c0-2.4,0-3.1,0-9.5s0-7.1,0.1-9.6
	c0.1-2.4,0.6-3.6,0.8-4.5c0.4-1.1,1-1.9,1.8-2.8c0.8-0.8,1.7-1.4,2.8-1.8c0.8-0.3,2.1-0.7,4.5-0.8C24.9,12.5,25.6,12.5,32,12.5
	 M32,8.3c-6.4,0-7.2,0-9.7,0.1c-2.5,0.1-4.2,0.6-5.7,1.1s-2.9,1.4-4.2,2.8s-2.1,2.6-2.8,4.2c-0.6,1.5-1,3.2-1.1,5.7
	c-0.1,2.5-0.1,3.3-0.1,9.7s0,7.2,0.1,9.7c0.1,2.5,0.6,4.2,1.1,5.7c0.6,1.5,1.4,2.9,2.8,4.2c1.3,1.3,2.6,2.1,4.2,2.8
	c1.5,0.6,3.2,1,5.7,1.1c2.5,0.1,3.3,0.1,9.7,0.1s7.2,0,9.7-0.1c2.5-0.1,4.2-0.6,5.7-1.1c1.5-0.6,2.9-1.4,4.2-2.8
	c1.3-1.3,2.1-2.6,2.8-4.2c0.6-1.5,1-3.2,1.1-5.7c0.1-2.5,0.1-3.3,0.1-9.7s0-7.2-0.1-9.7c-0.1-2.5-0.6-4.2-1.1-5.7
	c-0.6-1.5-1.4-2.9-2.8-4.2s-2.6-2.1-4.2-2.8c-1.5-0.6-3.2-1-5.7-1.1C39.2,8.3,38.4,8.3,32,8.3L32,8.3z"/>
<path class="st1" d="M32,19.5c-7,0-12.5,5.6-12.5,12.5S25,44.5,32,44.5S44.5,39,44.5,32S39,19.5,32,19.5z M32,40.3
	c-4.6,0-8.3-3.8-8.3-8.3s3.8-8.3,8.3-8.3s8.3,3.8,8.3,8.3S36.6,40.3,32,40.3z"/>
<circle class="st1" cx="44.5" cy="19.5" r="2.8"/>
</svg>
