<svg id="Слой_1" data-name="Слой 1" xmlns="http://www.w3.org/2000/svg" xmlns:xlink="http://www.w3.org/1999/xlink" viewBox="0 0 335.15 323.3"><defs><style>.cls-1{fill:url(#Безымянный_градиент_40);}.cls-2{fill:url(#Безымянный_градиент_40-2);}.cls-3{fill:url(#Безымянный_градиент_40-3);}.cls-4{fill:url(#Безымянный_градиент_40-4);}.cls-5{fill:url(#Безымянный_градиент_40-5);}</style><linearGradient id="Безымянный_градиент_40" x1="11.73" y1="185.46" x2="323.24" y2="185.46" gradientUnits="userSpaceOnUse"><stop offset="0" stop-color="#bf2000"/><stop offset="1" stop-color="#ff5f2a"/></linearGradient><linearGradient id="Безымянный_градиент_40-2" x1="202.17" y1="107.19" x2="252.12" y2="107.19" xlink:href="#Безымянный_градиент_40"/><linearGradient id="Безымянный_градиент_40-3" x1="0" y1="302.29" x2="335.15" y2="302.29" xlink:href="#Безымянный_градиент_40"/><linearGradient id="Безымянный_градиент_40-4" x1="83.01" y1="107.6" x2="132.98" y2="107.6" xlink:href="#Безымянный_градиент_40"/><linearGradient id="Безымянный_градиент_40-5" x1="127.81" y1="95.7" x2="207.32" y2="95.7" xlink:href="#Безымянный_градиент_40"/></defs><path class="cls-1" d="M11.93,258.78c0,2.74.1,5.49,0,8.23-.08,1.78.52,2.35,2.32,2.33,9.46-.11,18.93-.12,28.39-.16h82.3c3.35,0,6.7.23,10,.09,5.69-.23,10.82,1,15.07,5a4,4,0,0,0,3,1c4.83-.07,9.66-.09,14.49-.13,4.34,0,8.68,0,13,.15a7.68,7.68,0,0,0,5.73-1.92A17.15,17.15,0,0,1,198,269.29c4.09,0,8.17-.07,12.26-.11h82.31c9.34,0,18.68,0,28,.17,2.14,0,2.7-.64,2.7-2.74-.06-49.2.05-98.41-.15-147.62,0-9.77-5.17-16.92-14.09-21.17-5.27-2.51-10.87-2.27-16.48-2H248.78c3.12,2.58,5.5,4.59,7.93,6.53a18.71,18.71,0,0,1,7.37,15.6c-.05,5-.22,10,0,15,.47,8.64-3.05,14.91-10.51,19.09-3.4.87-6.61,3-10.35,1.8q-14.73-4.59-29.43-9.21a3.43,3.43,0,0,0-2.78-.07c7.71,8,8.23,9.27,8.23,20.38,0,6-.24,11.94.06,17.89.42,8.4-2.8,14.68-10,19-6,2.47-11.78,2-17.57-.85-7-3.48-14.1-6.75-21.2-10-1.16-.54-2.3-1.65-3.8-.86-7.78,3.57-15.65,6.94-23.31,10.76-6.23,3.11-12.31,3.47-18.59.52-6.76-4.45-9.58-10.72-9.13-18.76a132.19,132.19,0,0,0,0-15.29c-.5-8.38.38-16.17,7.41-22,.13-.1,0-.47.08-1.23-4,1.2-7.86,2.51-11.78,3.48-9.84,2.44-19.17,8.13-29.94,4.94C74,147.56,70.12,140.87,71,131.59a80.51,80.51,0,0,0,0-11.93c-.4-7.72,2.42-13.77,8.65-18.33,2.13-1.56,4.07-3.36,6.79-5.63H83.63l-41,.12c-.87,0-1.74,0-2.61-.12-17.87-1.47-28.48,11.46-28.27,27.78C12.31,168.58,11.93,213.68,11.93,258.78Z"/><path class="cls-2" d="M204.12,129.15q11.22,3.34,22.45,6.66c5.7,1.77,11.36,3.63,17.08,5.28,5,1.45,8.36-1.1,8.43-6.35.08-5.73,0-11.45,0-17.18a6.44,6.44,0,0,0-2.29-5.29q-11.1-9.1-22.26-18.14L202.2,72.89c0,18.88,0,36.43,0,54C202.17,128.33,203,128.81,204.12,129.15Z"/><path class="cls-3" d="M328.79,281.32c-9.6-.06-19.2.05-28.79.08H208c-3.24,0-6.48-.11-9.72-.11-2,0-4.05.32-5.28,2.06-2.53,3.59-6,4.38-10.08,3.95a45.6,45.6,0,0,0-5.6.09c-9.4,0-18.8-.12-28.21-.09a6.27,6.27,0,0,1-4.71-1.52c-1.84-2.42-3.86-4.52-7.24-4.5l-27.93.12H42.61c-12.06,0-24.11-.13-36.17-.09-4.29,0-6.57,2.51-6.43,6.92a34.62,34.62,0,0,0,8.73,22.44c9,10.29,20.62,13.62,33.87,12.39h226L300,323c18.58.26,35.36-16.47,35.15-35.05C335.1,283.82,332.9,281.34,328.79,281.32Z"/><path class="cls-4" d="M83,117.58c0,5.85-.07,11.71,0,17.57.09,4.62,3.32,7.29,7.72,6.09,6.21-1.7,12.31-3.82,18.46-5.77,7.05-1.51,13.77-4.16,20.74-5.95,2.47-.64,3-1.83,3-4.16-.09-16.18,0-32.36-.07-48.54,0-.93.39-2-.87-3.16l-23,19.27L85.6,112.05A6.66,6.66,0,0,0,83,117.58Z"/><path class="cls-5" d="M130.05,155.48a6.31,6.31,0,0,0-2.24,5.28c0,8,0,15.92,0,23.87.05,5.59,3.94,8.16,9,6,2.84-1.23,5.58-2.69,8.36-4.05l22.36-10.28,23.86,11c2.32,1.14,4.6,2.39,7,3.41,4.85,2.08,8.81-.47,8.88-5.79.1-8.08,0-16.17,0-24.25a6.3,6.3,0,0,0-2.32-5.24q-6.36-5.14-12.75-10.26c-1.73-1.34-2.06-3.1-2.05-5.23q.12-29,0-57.95c0-15.33.36-30.68-.31-46A43.92,43.92,0,0,0,172.25,2c-1.37-1.06-2.74-2.21-4.68-1.9-3.82,0-6,2.81-8.36,5.07C149.16,14.83,144.91,27,144.9,40.78q0,49.31,0,98.61c0,1.59.35,3.25-.61,4.73C139.53,147.9,134.77,151.67,130.05,155.48Z"/></svg>