<?xml version="1.0" encoding="utf-8"?>
<!-- Generator: Adobe Illustrator 26.5.0, SVG Export Plug-In . SVG Version: 6.00 Build 0)  -->
<svg version="1.1" id="Слой_1" xmlns="http://www.w3.org/2000/svg" xmlns:xlink="http://www.w3.org/1999/xlink" x="0px" y="0px"
	 viewBox="0 0 111.8 30.5" style="enable-background:new 0 0 111.8 30.5;" xml:space="preserve">
<style type="text/css">
	.st0{fill:#90DB00;}
	.st1{fill:#FFFFFF;}
</style>
<path class="st0" d="M7.3,6c0,0.3,0,0.6,0,0.9c0,1.7,0,1.7,1.7,1.2c1.5-0.5,3-0.3,4.6,0c2.2,0.4,4,1.5,5.4,3.1
	c1.2,1.5,2,3.1,2.2,5.2c0.2,1.4,0.3,2.8,0.1,4.2c-0.3,3.3-2.7,6.9-6.1,8.1c-2.8,1-7.4,0.7-8.4,0.7c-0.9,0-1.5-0.1-2.8-0.2
	c-0.4,0.1,0.1-0.9,0.2-1.1c0.9-2,1.9-4.2,3.5-6.3c0.7-1,1.6-1.6,2.5-2.3c0.4-0.3,1-0.3,0.9,0.6c-0.1,0.9,0,1.7,0,2.6
	c0,0.2,0,0.4,0.2,0.5c0.3,0.1,0.4-0.1,0.5-0.3c0.5-0.7,0.6-1.5,0.7-2.2c0.2-0.7,0.4-1.3,0.5-2c0.1-0.8,0.9-1.2,1.5-1.4
	c0.7-0.3,0.8-0.8,0.5-1.3c-0.3-0.5-0.7-0.3-1.2-0.1c-0.8,0.4-1.5,0.7-2.6,0.3c-1-0.4-2.1-0.4-3.1-0.9c-0.5-0.2-0.9,0.1-1,0.5
	c-0.2,0.4,0.2,0.5,0.5,0.7c0.7,0.5,1.6,0.6,2.1,1.3c0.3,0.4,0.3,0.4-0.2,0.6c-1.5,0.5-2.9,1.1-4.4,1.7c-1.8,0.8-3.1,1.7-4.8,2.8
	C0.1,23.1,0,22.8,0,22.4c0-0.7,0-1.3,0-2c0-6,0-12,0-18c0-0.8,0.3-1.2,0.9-1.1c1.3,0,2.5-0.5,3.8-0.2c1.7,0.4,2.5,1.7,2.6,3.1
	C7.3,4.8,7.3,5.4,7.3,6L7.3,6z"/>
<path class="st1" d="M44.4,16.3c0-3.7,0-7.4,0-11.1c0-1,1.1-2.6,2.1-3c1.2-0.5,2.4-0.5,3.7-0.4c3.5,0.1,6.9,0,10.4,0
	c0.7,0,1.3,0,2,0c1.5,0,2,0.5,2,2c0,1,0.4,2-0.4,3C63.4,7.7,62.5,8,61.6,8c-2.8,0-5.5,0-8.3,0c-0.9,0-1.3,0.6-1.2,1.5
	c0.1,0.9,0,1.7,0,2.6c0,0.8,0.2,1.2,1.2,1.2c2.7-0.1,5.5,0,8.2,0c0.6,0,0.9,0.2,1.1,0.7c0.4,1.2,0.9,2.4,0.3,3.8
	c-0.4,0.8-1.5,1.8-2.4,1.8c-2.4,0-4.8,0-7.3,0c-0.7,0-0.9,0.2-0.9,0.9c0,2.2,0,4.4,0,6.5c0,0.8-0.2,1.5-0.5,2.2
	c-0.1,0.4-0.5,0.4-0.9,0.4c-1.4,0-2.8,0-4.3,0c-1.1,0-1.7-0.7-2.1-1.5c-0.3-0.6-0.4-1.3-0.4-2C44.3,22.7,44.3,19.5,44.4,16.3
	L44.4,16.3z"/>
<path class="st1" d="M96.1,23.4c0-0.2-0.1-0.5,0-0.7c0.5-2.5-0.9-4.3-2.2-6.2c-0.9-1.4-1.7-2.8-2.5-4.2c-1-1.7-2-3.3-2.9-5
	c-0.5-0.8-0.8-1.8-1.3-2.6c-0.5-0.9-0.2-1.3,0.5-1.8c2.1-1.6,4.6-1.6,6.7-0.1c1.1,0.8,1.6,2.1,2.1,3.3c0.8,1.6,1.4,3.3,2.4,4.8
	c0.1,0.2,0.1,0.5,0.3,0.6c0.3,0.3,0,1.2,0.7,1.1c0.5-0.1,0.6-0.8,0.8-1.2c1.1-2.6,2.2-5.2,3.2-7.8c0.4-1,1-1.4,2-1.6
	c1.2-0.3,2.3-0.3,3.6-0.1c1.8,0.4,2.8,2.3,2.3,3.8c-0.8,2.5-2.2,4.8-3.5,7.1c-1.2,2.1-2.4,4.2-3.7,6.1c-0.7,1.1-0.7,2.1-0.7,3.3
	c0,2.1,0,4.3,0,6.4c0,0.7-0.2,0.9-0.9,0.9c-1.3,0-2.7,0-4,0c-1.7,0-2.8-1.1-2.8-2.9C96,25.5,96,24.5,96.1,23.4
	C96.1,23.4,96.1,23.4,96.1,23.4"/>
<path class="st1" d="M68,14.8c0-3.7-0.1-7.4,0-11.1c0-2.2,0.1-2.2,2.1-2.2c0.8,0,1.6,0,2.4,0c2.4,0,3.5,1.3,3.5,3.7
	c0,5.7,0,11.3-0.1,17c0,0.9,0.3,1.1,1.1,1.1c2.5,0,4.9,0,7.4,0c2.5,0,2.5,0.4,2.8,2.9c0.2,1.4-0.5,2.3-1.4,3.2
	c-0.1,0.1-0.5,0.1-0.7,0.1c-4.6,0-9.3,0-13.9,0c-1.5,0-3.2-2-3.3-3.6C68,22.2,68,18.5,68,14.8C68,14.8,68,14.8,68,14.8"/>
<path class="st1" d="M32.9,1.9c-1.2-0.3-2.3-0.3-3.6,0.1c-1,0.3-1.6,0.6-2,1.6c-1,2.6-2.1,5.2-3.2,7.8c-0.2,0.5-0.3,1.2-0.8,1.2
	c-0.6,0.1-0.3-0.8-0.7-1.1c-0.2-0.1-0.2-0.4-0.3-0.6c-1-1.5-1.6-3.2-2.4-4.8c-0.6-1.2-1-2.5-2.1-3.3c-2.1-1.6-4.6-1.5-6.7,0.1
	c-0.6,0.5-1,1-0.5,1.8c0.2,0.4,0.4,0.8,0.6,1.2c0.9,0,1.7,0.2,2.4,0.3c2.6,0.5,4.8,1.8,6.4,3.8c1.5,1.8,2.4,3.8,2.7,6.2
	c0.2,1.8,0.3,3.2,0.2,4.6c-0.2,2.6-1.1,6-5.9,8.7c1.9,0,4,0,5.3,0c1.3,0,2.7,0,4,0c0.7,0,0.9-0.2,0.9-0.9c0-2.1,0-4.3,0-6.4
	c0-1.1,0-2.2,0.7-3.3c1.4-2,2.5-4.1,3.7-6.1c1.3-2.3,2.7-4.5,3.5-7.1C35.7,4.2,34.7,2.3,32.9,1.9"/>
</svg>
