<?xml version="1.0" encoding="utf-8"?>
<!-- Generator: Adobe Illustrator 26.5.0, SVG Export Plug-In . SVG Version: 6.00 Build 0)  -->
<svg version="1.1" id="Слой_1" xmlns="http://www.w3.org/2000/svg" xmlns:xlink="http://www.w3.org/1999/xlink" x="0px" y="0px"
	 viewBox="0 0 112.9 31" style="enable-background:new 0 0 112.9 31;" xml:space="preserve">
<style type="text/css">
	.st0{fill:#FFFFFF;}
</style>
<g>
	<path class="st0" d="M7.6,5.9c0,0.3,0,0.6,0,0.9c0,1.8,0,1.8,1.8,1.3c1.6-0.5,3.1-0.4,4.8,0c2.3,0.4,4.1,1.5,5.6,3.3
		c1.3,1.6,2.1,3.3,2.3,5.4c0.2,1.5,0.3,2.9,0.2,4.4c-0.3,3.5-2.8,7.2-6.3,8.4c-2.9,1-7.7,0.7-8.7,0.7c-0.9,0-1.5-0.1-2.9-0.2
		c-0.5,0.1,0.1-1,0.2-1.2c0.9-2.1,2-4.3,3.6-6.6c0.7-1,1.6-1.7,2.6-2.4c0.4-0.3,1.1-0.3,1,0.6c-0.1,0.9,0,1.8,0,2.7
		c0,0.2,0,0.4,0.2,0.5c0.3,0.1,0.4-0.2,0.6-0.3c0.5-0.7,0.6-1.5,0.8-2.3c0.2-0.7,0.4-1.4,0.5-2.1c0.1-0.8,0.9-1.2,1.6-1.5
		c0.7-0.3,0.8-0.8,0.5-1.3c-0.3-0.5-0.8-0.3-1.3-0.1c-0.8,0.4-1.6,0.7-2.7,0.3c-1-0.4-2.2-0.5-3.3-0.9c-0.5-0.2-0.9,0.1-1.1,0.5
		c-0.2,0.4,0.2,0.5,0.6,0.7c0.7,0.5,1.7,0.6,2.2,1.4c0.3,0.4,0.3,0.5-0.2,0.6c-1.6,0.5-3,1.1-4.6,1.8c-1.9,0.9-3.2,1.8-4.9,2.9
		C0.1,23.7,0,23.4,0,23c0-0.7,0-1.4,0-2.1C0,14.7,0,8.4,0,2.2C0,1.4,0.3,1,0.9,1c1.3,0,2.6-0.5,4-0.2C6.7,1.2,7.6,2.5,7.6,4
		C7.6,4.6,7.6,5.3,7.6,5.9C7.6,5.9,7.6,5.9,7.6,5.9z"/>
	<path class="st0" d="M46.1,16.6c0-3.8,0-7.7,0-11.5c0-1.1,1.2-2.7,2.2-3.1c1.2-0.5,2.5-0.5,3.8-0.4c3.6,0.1,7.2,0,10.8,0.1
		c0.7,0,1.4,0,2,0c1.5,0,2.1,0.5,2,2c0,1,0.4,2.1-0.4,3.1C65.9,7.7,65,8,64,8c-2.9,0-5.8,0-8.6,0c-0.9,0-1.3,0.6-1.3,1.6
		c0.1,0.9,0,1.8,0,2.7c0,0.8,0.2,1.3,1.2,1.3c2.8-0.1,5.7,0,8.5,0c0.6,0,0.9,0.2,1.1,0.7c0.4,1.3,0.9,2.5,0.3,3.9
		c-0.4,0.9-1.6,1.8-2.5,1.8c-2.5,0-5,0-7.5,0c-0.7,0-0.9,0.2-0.9,0.9c0,2.3,0,4.5,0,6.8c0,0.8-0.3,1.5-0.5,2.3
		c-0.2,0.4-0.6,0.4-0.9,0.4c-1.5,0-2.9,0-4.4,0c-1.1,0-1.7-0.7-2.1-1.6c-0.3-0.6-0.4-1.4-0.4-2.1C46.1,23.3,46.1,19.9,46.1,16.6
		C46.1,16.6,46.1,16.6,46.1,16.6z"/>
	<path class="st0" d="M94.1,24c0-0.3-0.1-0.5,0-0.8c0.5-2.6-1-4.4-2.2-6.4c-0.9-1.4-1.8-2.9-2.6-4.3c-1-1.7-2-3.4-3-5.2
		c-0.5-0.9-0.8-1.9-1.3-2.7c-0.6-0.9-0.2-1.4,0.5-1.9c2.2-1.7,4.8-1.7,6.9-0.1c1.1,0.8,1.6,2.2,2.2,3.4c0.8,1.7,1.5,3.4,2.5,5
		c0.1,0.2,0.1,0.5,0.3,0.7c0.4,0.3,0,1.2,0.7,1.1c0.5-0.1,0.6-0.8,0.8-1.3c1.1-2.7,2.2-5.4,3.3-8.1c0.4-1,1.1-1.4,2.1-1.7
		c1.3-0.3,2.4-0.3,3.7-0.1c1.9,0.4,2.9,2.4,2.4,4c-0.8,2.6-2.3,5-3.6,7.3c-1.2,2.2-2.5,4.3-3.9,6.4c-0.8,1.1-0.7,2.2-0.7,3.4
		c0,2.2,0,4.5,0,6.7c0,0.7-0.2,0.9-0.9,0.9c-1.4-0.1-2.8,0-4.2,0c-1.8,0-2.9-1.2-2.9-3C94,26.2,94,25.1,94.1,24
		C94,24,94.1,24,94.1,24z"/>
	<path class="st0" d="M70.7,15c0-3.8-0.1-7.7,0-11.5c0-2.3,0.1-2.2,2.2-2.3c0.8,0,1.7,0,2.5,0C77.9,1.2,79,2.6,79,5
		c0,5.9,0,11.8-0.1,17.7c0,1,0.3,1.1,1.1,1.1c2.5,0,5.1,0,7.6,0c2.6,0,2.6,0.4,3,3c0.2,1.5-0.6,2.4-1.5,3.4
		c-0.1,0.1-0.5,0.1-0.7,0.1c-4.8,0-9.6,0-14.4,0c-1.5,0-3.4-2.1-3.4-3.7C70.7,22.7,70.7,18.9,70.7,15C70.7,15,70.7,15,70.7,15z"/>
	<path class="st0" d="M34.2,1.6c-1.3-0.3-2.4-0.3-3.7,0.1c-1.1,0.3-1.7,0.7-2.1,1.7c-1,2.7-2.2,5.4-3.3,8.1
		c-0.2,0.5-0.3,1.2-0.8,1.3c-0.7,0.1-0.3-0.8-0.7-1.1c-0.2-0.2-0.2-0.5-0.3-0.7c-1.1-1.6-1.7-3.3-2.5-5c-0.6-1.2-1.1-2.6-2.2-3.4
		c-2.2-1.6-4.7-1.6-6.9,0.1c-0.7,0.5-1.1,1-0.5,1.9c0.2,0.4,0.4,0.8,0.6,1.2c0.9,0,1.7,0.2,2.5,0.3c2.8,0.5,5,1.9,6.7,3.9
		c1.6,1.9,2.5,4,2.8,6.4c0.2,1.9,0.3,3.3,0.2,4.8c-0.2,2.7-1.1,6.3-6.1,9c2,0,4.1,0,5.5,0c1.4,0,2.8,0,4.2,0c0.7,0,0.9-0.2,0.9-0.9
		c0-2.2,0-4.5,0-6.7c0-1.2,0-2.3,0.7-3.4c1.4-2,2.6-4.2,3.9-6.4c1.4-2.4,2.8-4.7,3.6-7.3C37.1,4.1,36.1,2,34.2,1.6z"/>
</g>
</svg>
