<?xml version="1.0" encoding="utf-8"?>
<!-- Generator: Adobe Illustrator 26.5.0, SVG Export Plug-In . SVG Version: 6.00 Build 0)  -->
<svg version="1.1" id="Слой_1" xmlns="http://www.w3.org/2000/svg" xmlns:xlink="http://www.w3.org/1999/xlink" x="0px" y="0px"
	 viewBox="0 0 111.8 30.5" style="enable-background:new 0 0 111.8 30.5;" xml:space="preserve">
<style type="text/css">
	.st0{fill:#F9A806;}
	.st1{fill:#04DACE;}
</style>
<g>
	<path class="st0" d="M8.2,5.6c0,0.3,0,0.6,0,0.9c0,1.8,0,1.8,1.8,1.3c1.6-0.5,3.1-0.4,4.8,0c2.3,0.4,4.1,1.5,5.6,3.3
		c1.3,1.6,2.1,3.3,2.3,5.4c0.2,1.5,0.3,2.9,0.2,4.4c-0.3,3.5-2.8,7.2-6.3,8.4c-2.9,1-7.7,0.7-8.7,0.7c-0.9,0-1.5-0.1-2.9-0.2
		c-0.5,0.1,0.1-1,0.2-1.2c0.9-2.1,2-4.3,3.6-6.6c0.7-1,1.6-1.7,2.6-2.4c0.4-0.3,1.1-0.3,1,0.6c-0.1,0.9,0,1.8,0,2.7
		c0,0.2,0,0.4,0.2,0.5c0.3,0.1,0.4-0.2,0.6-0.3c0.5-0.7,0.6-1.5,0.8-2.3c0.2-0.7,0.4-1.4,0.5-2.1c0.1-0.8,0.9-1.2,1.6-1.5
		c0.7-0.3,0.8-0.8,0.5-1.3c-0.3-0.5-0.8-0.3-1.3-0.1c-0.8,0.4-1.6,0.7-2.7,0.3c-1-0.4-2.2-0.5-3.3-0.9c-0.5-0.2-0.9,0.1-1.1,0.5
		C8,16,8.4,16.1,8.7,16.4c0.7,0.5,1.7,0.6,2.2,1.4c0.3,0.4,0.3,0.5-0.2,0.6c-1.6,0.5-3,1.1-4.6,1.8C4.2,21,2.9,21.9,1.2,23
		c-0.5,0.4-0.6,0.1-0.6-0.3c0-0.7,0-1.4,0-2.1c0-6.2,0-12.5,0-18.7c0-0.8,0.3-1.2,0.9-1.2c1.3,0,2.6-0.5,4-0.2
		c1.8,0.4,2.6,1.7,2.7,3.2C8.2,4.4,8.2,5,8.2,5.6C8.2,5.6,8.2,5.6,8.2,5.6z"/>
	<path class="st1" d="M46.7,16.3c0-3.8,0-7.7,0-11.5c0-1.1,1.2-2.7,2.2-3.1c1.2-0.5,2.5-0.5,3.8-0.4c3.6,0.1,7.2,0,10.8,0.1
		c0.7,0,1.4,0,2,0c1.5,0,2.1,0.5,2,2c0,1,0.4,2.1-0.4,3.1c-0.7,0.9-1.6,1.2-2.6,1.2c-2.9,0-5.8,0-8.6,0c-0.9,0-1.3,0.6-1.3,1.6
		c0.1,0.9,0,1.8,0,2.7c0,0.8,0.2,1.3,1.2,1.3c2.8-0.1,5.7,0,8.5,0c0.6,0,0.9,0.2,1.1,0.7c0.4,1.3,0.9,2.5,0.3,3.9
		c-0.4,0.9-1.6,1.8-2.5,1.8c-2.5,0-5,0-7.5,0c-0.7,0-0.9,0.2-0.9,0.9c0,2.3,0,4.5,0,6.8c0,0.8-0.3,1.5-0.5,2.3
		c-0.2,0.4-0.6,0.4-0.9,0.4c-1.5,0-2.9,0-4.4,0c-1.1,0-1.7-0.7-2.1-1.6c-0.3-0.6-0.4-1.4-0.4-2.1C46.7,23,46.7,19.7,46.7,16.3
		C46.7,16.3,46.7,16.3,46.7,16.3z"/>
	<path class="st1" d="M94.6,23.7c0-0.3-0.1-0.5,0-0.8c0.5-2.6-1-4.4-2.2-6.4c-0.9-1.4-1.8-2.9-2.6-4.3c-1-1.7-2-3.4-3-5.2
		c-0.5-0.9-0.8-1.9-1.3-2.7c-0.6-0.9-0.2-1.4,0.5-1.9c2.2-1.7,4.8-1.7,6.9-0.1c1.1,0.8,1.6,2.2,2.2,3.4c0.8,1.7,1.5,3.4,2.5,5
		c0.1,0.2,0.1,0.5,0.3,0.7c0.4,0.3,0,1.2,0.7,1.1c0.5-0.1,0.6-0.8,0.8-1.3c1.1-2.7,2.2-5.4,3.3-8.1c0.4-1,1.1-1.4,2.1-1.7
		c1.3-0.3,2.4-0.3,3.7-0.1c1.9,0.4,2.9,2.4,2.4,4c-0.8,2.6-2.3,5-3.6,7.3c-1.2,2.2-2.5,4.3-3.9,6.4c-0.8,1.1-0.7,2.2-0.7,3.4
		c0,2.2,0,4.5,0,6.7c0,0.7-0.2,0.9-0.9,0.9c-1.4-0.1-2.8,0-4.2,0c-1.8,0-2.9-1.2-2.9-3C94.6,25.9,94.6,24.8,94.6,23.7
		C94.6,23.7,94.6,23.7,94.6,23.7z"/>
	<path class="st1" d="M71.2,14.7c0-3.8-0.1-7.7,0-11.5c0-2.3,0.1-2.2,2.2-2.3c0.8,0,1.7,0,2.5,0c2.5,0,3.6,1.4,3.6,3.8
		c0,5.9,0,11.8-0.1,17.7c0,1,0.3,1.1,1.1,1.1c2.5,0,5.1,0,7.6,0c2.6,0,2.6,0.4,3,3c0.2,1.5-0.6,2.4-1.5,3.4C89.7,30,89.3,30,89.1,30
		c-4.8,0-9.6,0-14.4,0c-1.5,0-3.4-2.1-3.4-3.7C71.2,22.4,71.2,18.6,71.2,14.7C71.2,14.7,71.2,14.7,71.2,14.7z"/>
	<path class="st1" d="M34.8,1.4c-1.3-0.3-2.4-0.3-3.7,0.1C30,1.7,29.4,2.1,29,3.1c-1,2.7-2.2,5.4-3.3,8.1c-0.2,0.5-0.3,1.2-0.8,1.3
		c-0.7,0.1-0.3-0.8-0.7-1.1c-0.2-0.2-0.2-0.5-0.3-0.7c-1.1-1.6-1.7-3.3-2.5-5c-0.6-1.2-1.1-2.6-2.2-3.4c-2.2-1.6-4.7-1.6-6.9,0.1
		c-0.7,0.5-1.1,1-0.5,1.9c0.2,0.4,0.4,0.8,0.6,1.2c0.9,0,1.7,0.2,2.5,0.3c2.8,0.5,5,1.9,6.7,3.9c1.6,1.9,2.5,4,2.8,6.4
		c0.2,1.9,0.3,3.3,0.2,4.8c-0.2,2.7-1.1,6.3-6.1,9c2,0,4.1,0,5.5,0c1.4,0,2.8,0,4.2,0c0.7,0,0.9-0.2,0.9-0.9c0-2.2,0-4.5,0-6.7
		c0-1.2,0-2.3,0.7-3.4c1.4-2,2.6-4.2,3.9-6.4c1.4-2.4,2.8-4.7,3.6-7.3C37.7,3.8,36.7,1.8,34.8,1.4z"/>
</g>
</svg>
