<?xml version="1.0" encoding="UTF-8"?><svg id="_Слой_1" xmlns="http://www.w3.org/2000/svg" viewBox="0 0 1000 500.03"><g id="_01_United_Kingdom_country_national_flag_world_flag"><path d="m0,430.58V69.45L62.5,0h312.5l125,13.89L625,0h312.5l62.5,69.45v361.13l-62.5,69.45h-312.5l-125-13.89-125,13.89H62.5L0,430.58Z" fill="#0053b5" stroke-width="0"/><path d="m0,166.68h1000v166.68H0v-166.68Z" fill="#fff" stroke-width="0"/><path d="m0,194.46h1000v111.12H0v-111.12Z" fill="#d80027" stroke-width="0"/><path d="m375,0h250v500.03h-250V0Z" fill="#fff" stroke-width="0"/><path d="m416.67,0h166.67v500.03h-166.67V0Z" fill="#d80027" stroke-width="0"/><path d="m1000,0h-62.5l-312.5,138.9v41.67l166.67-13.89,208.33-97.23V0Z" fill="#fff" stroke-width="0"/><path d="m1000,0l-375,166.68h104.17l270.83-125.01V0Z" fill="#d80027" stroke-width="0"/><path d="m0,0h62.5l312.5,138.9v41.67l-166.67-13.89L0,69.45V0Z" fill="#fff" stroke-width="0"/><path d="m0,0l375,166.68h-104.17L0,41.67V0Z" fill="#d80027" stroke-width="0"/><path d="m0,500.03h62.5l312.5-138.9v-41.67l-166.67,13.89L0,430.58v69.45Z" fill="#fff" stroke-width="0"/><path d="m0,500.03l375-166.68h-104.17L0,458.36v41.67Z" fill="#d80027" stroke-width="0"/><path d="m1000,500.03h-62.5l-312.5-138.9v-41.67l166.67,13.89,208.33,97.23v69.45Z" fill="#fff" stroke-width="0"/><path d="m1000,500.03l-375-166.68h104.17l270.83,125.01v41.67Z" fill="#d80027" stroke-width="0"/></g></svg>