<?xml version="1.0" encoding="UTF-8"?><svg id="_Слой_1" xmlns="http://www.w3.org/2000/svg" viewBox="0 0 464.87 618.72"><path d="m232.44,609.72c-2.14,0-4.17-.97-5.53-2.63-1.22-1.5-122.22-150.32-162.35-209.65-19.92-29.45-34.71-59.5-43.96-89.31-9.04-29.14-12.82-58.17-11.25-86.28,3.08-55.3,27.07-106.88,69.37-149.18C119.78,31.61,174.37,9,232.44,9s112.66,22.61,153.72,63.68c42.3,42.3,66.29,93.88,69.37,149.18,1.57,28.12-2.22,57.15-11.25,86.28-9.25,29.81-24.04,59.86-43.96,89.31-40.13,59.32-161.13,208.15-162.35,209.65-1.35,1.66-3.38,2.63-5.53,2.63Zm0-586.48c-54.26,0-105.28,21.13-143.65,59.5C49.01,122.53,26.45,170.91,23.57,222.65c-2.99,53.66,15.26,111.35,52.79,166.82,34.88,51.55,131.86,171.91,156.08,201.82,24.21-29.91,121.2-150.27,156.08-201.82l5.9,3.99-5.9-3.99c37.53-55.47,55.78-113.15,52.79-166.82-2.89-51.74-25.44-100.12-65.22-139.9-38.37-38.37-89.39-59.5-143.65-59.5Z" fill="#e02f2f" stroke="#e02f2f" stroke-miterlimit="10" stroke-width="18"/><circle cx="229.56" cy="241.18" r="62.56" fill="none" stroke="#e02f2f" stroke-miterlimit="10" stroke-width="25"/></svg>