<?xml version="1.0" encoding="UTF-8"?><svg id="_Слой_1" xmlns="http://www.w3.org/2000/svg" viewBox="0 0 1000 500"><path d="m0,0h1000v500H0V0Z" fill="#00abc2" stroke-width="0"/><circle cx="540.24" cy="210" r="67.28" fill="#ffec2d" stroke-width="0"/><g id="A"><g id="B"><path id="C" d="m540.24,133.55c4-.05,5.5-2.55,5.5-5.55,0-4-5.5-23.05-5.5-23.05,0,0-5.5,19.05-5.5,23.05,0,3,1.5,5.55,5.5,5.55Z" fill="#ffec2d" stroke-width="0"/><path id="C-2" d="m616.69,210c.05,4,2.55,5.5,5.55,5.5,4,0,23.05-5.5,23.05-5.5,0,0-19.05-5.5-23.05-5.5-3,0-5.55,1.5-5.55,5.5Z" fill="#ffec2d" stroke-width="0"/><path id="C-3" d="m540.24,286.45c-4,.05-5.5,2.55-5.5,5.55,0,4,5.5,23.05,5.5,23.05,0,0,5.5-19.05,5.5-23.05,0-3-1.5-5.55-5.5-5.55Z" fill="#ffec2d" stroke-width="0"/><path id="C-4" d="m463.79,210c-.05-4-2.55-5.5-5.55-5.5-4,0-23.05,5.5-23.05,5.5,0,0,19.05,5.5,23.05,5.5,3,0,5.55-1.5,5.55-5.5Z" fill="#ffec2d" stroke-width="0"/></g><g id="B-2"><path id="C-5" d="m569.49,139.37c3.71,1.48,6.06-.25,7.21-3.02,1.53-3.7,3.74-23.4,3.74-23.4,0,0-12.37,15.5-13.9,19.19-1.15,2.77-.74,5.7,2.96,7.23Z" fill="#ffec2d" stroke-width="0"/><path id="C-6" d="m610.87,239.26c-1.48,3.71.25,6.06,3.02,7.21,3.7,1.53,23.4,3.74,23.4,3.74,0,0-15.5-12.37-19.19-13.9-2.77-1.15-5.7-.74-7.23,2.96Z" fill="#ffec2d" stroke-width="0"/><path id="C-7" d="m510.98,280.63c-3.71-1.48-6.06.25-7.21,3.02-1.53,3.7-3.74,23.4-3.74,23.4,0,0,12.37-15.5,13.9-19.19,1.15-2.77.74-5.7-2.96-7.23Z" fill="#ffec2d" stroke-width="0"/><path id="C-8" d="m469.61,180.74c1.48-3.71-.25-6.06-3.02-7.21-3.7-1.53-23.4-3.74-23.4-3.74,0,0,15.5,12.37,19.19,13.9,2.77,1.15,5.7.74,7.23-2.96Z" fill="#ffec2d" stroke-width="0"/></g><g id="B-3"><path id="C-9" d="m594.29,155.94c2.86,2.79,5.69,2.09,7.81-.04,2.83-2.83,12.41-20.19,12.41-20.19,0,0-17.36,9.58-20.19,12.41-2.12,2.12-2.86,4.99-.04,7.81Z" fill="#ffec2d" stroke-width="0"/><path id="C-10" d="m594.29,264.06c-2.79,2.86-2.09,5.69.04,7.81,2.83,2.83,20.19,12.41,20.19,12.41,0,0-9.58-17.36-12.41-20.19-2.12-2.12-4.99-2.86-7.81-.04Z" fill="#ffec2d" stroke-width="0"/><path id="C-11" d="m486.18,264.06c-2.86-2.79-5.69-2.09-7.81.04-2.83,2.83-12.41,20.19-12.41,20.19,0,0,17.36-9.58,20.19-12.41,2.12-2.12,2.86-4.99.04-7.81Z" fill="#ffec2d" stroke-width="0"/><path id="C-12" d="m486.18,155.94c2.79-2.86,2.09-5.69-.04-7.81-2.83-2.83-20.19-12.41-20.19-12.41,0,0,9.58,17.36,12.41,20.19,2.12,2.12,4.99,2.86,7.81.04Z" fill="#ffec2d" stroke-width="0"/></g><g id="B-4"><path id="C-13" d="m610.87,180.74c1.58,3.68,4.46,4.11,7.23,2.96,3.7-1.53,19.19-13.9,19.19-13.9,0,0-19.7,2.21-23.4,3.74-2.77,1.15-4.55,3.51-3.02,7.21Z" fill="#ffec2d" stroke-width="0"/><path id="C-14" d="m569.49,280.63c-3.68,1.58-4.11,4.46-2.96,7.23,1.53,3.7,13.9,19.19,13.9,19.19,0,0-2.21-19.7-3.74-23.4-1.15-2.77-3.51-4.55-7.21-3.02Z" fill="#ffec2d" stroke-width="0"/><path id="C-15" d="m469.61,239.26c-1.58-3.68-4.46-4.11-7.23-2.96-3.7,1.53-19.19,13.9-19.19,13.9,0,0,19.7-2.21,23.4-3.74,2.77-1.15,4.55-3.51,3.02-7.21Z" fill="#ffec2d" stroke-width="0"/><path id="C-16" d="m510.98,139.37c3.68-1.58,4.11-4.46,2.96-7.23-1.53-3.7-13.9-19.19-13.9-19.19,0,0,2.21,19.7,3.74,23.4,1.15,2.77,3.51,4.55,7.21,3.02Z" fill="#ffec2d" stroke-width="0"/></g></g><g id="A-2"><g id="B-5"><path id="C-17" d="m555.15,135.02c3.93.73,5.89-1.43,6.48-4.37.78-3.92-.9-23.68-.9-23.68,0,0-9.11,17.61-9.89,21.53-.59,2.94.39,5.74,4.31,6.52Z" fill="#ffec2d" stroke-width="0"/><path id="C-18" d="m615.22,224.91c-.73,3.93,1.43,5.89,4.37,6.48,3.92.78,23.68-.9,23.68-.9,0,0-17.61-9.11-21.53-9.89-2.94-.59-5.74.39-6.52,4.31Z" fill="#ffec2d" stroke-width="0"/><path id="C-19" d="m525.32,284.98c-3.93-.73-5.89,1.43-6.48,4.37-.78,3.92.9,23.68.9,23.68,0,0,9.11-17.61,9.89-21.53.59-2.94-.39-5.74-4.31-6.52Z" fill="#ffec2d" stroke-width="0"/><path id="C-20" d="m465.25,195.09c.73-3.93-1.43-5.89-4.37-6.48-3.92-.78-23.68.9-23.68.9,0,0,17.61,9.11,21.53,9.89,2.94.59,5.74-.39,6.52-4.31Z" fill="#ffec2d" stroke-width="0"/></g><g id="B-6"><path id="C-21" d="m582.71,146.43c3.35,2.18,5.99.94,7.66-1.56,2.22-3.33,8.23-22.22,8.23-22.22,0,0-15.16,12.78-17.38,16.11-1.67,2.49-1.84,5.45,1.49,7.67Z" fill="#ffec2d" stroke-width="0"/><path id="C-22" d="m603.8,252.47c-2.18,3.35-.94,5.99,1.56,7.66,3.33,2.22,22.22,8.23,22.22,8.23,0,0-12.78-15.16-16.11-17.38-2.49-1.67-5.45-1.84-7.67,1.49Z" fill="#ffec2d" stroke-width="0"/><path id="C-23" d="m497.76,273.57c-3.35-2.18-5.99-.94-7.66,1.56-2.22,3.33-8.23,22.22-8.23,22.22,0,0,15.16-12.78,17.38-16.11,1.67-2.49,1.84-5.45-1.49-7.67Z" fill="#ffec2d" stroke-width="0"/><path id="C-24" d="m476.67,167.53c2.18-3.35.94-5.99-1.56-7.66-3.33-2.22-22.22-8.23-22.22-8.23,0,0,12.78,15.16,16.11,17.38,2.49,1.67,5.45,1.84,7.67-1.49Z" fill="#ffec2d" stroke-width="0"/></g><g id="B-7"><path id="C-25" d="m603.8,167.53c2.26,3.3,5.18,3.16,7.67,1.49,3.33-2.22,16.11-17.38,16.11-17.38,0,0-18.9,6.01-22.22,8.23-2.49,1.67-3.78,4.33-1.56,7.66Z" fill="#ffec2d" stroke-width="0"/><path id="C-26" d="m582.71,273.57c-3.3,2.26-3.16,5.18-1.49,7.67,2.22,3.33,17.38,16.11,17.38,16.11,0,0-6.01-18.9-8.23-22.22-1.67-2.49-4.33-3.78-7.66-1.56Z" fill="#ffec2d" stroke-width="0"/><path id="C-27" d="m476.67,252.47c-2.26-3.3-5.18-3.16-7.67-1.49-3.33,2.22-16.11,17.38-16.11,17.38,0,0,18.9-6.01,22.22-8.23,2.49-1.67,3.78-4.33,1.56-7.66Z" fill="#ffec2d" stroke-width="0"/><path id="C-28" d="m497.76,146.43c3.3-2.26,3.16-5.18,1.49-7.67-2.22-3.33-17.38-16.11-17.38-16.11,0,0,6.01,18.9,8.23,22.22,1.67,2.49,4.33,3.78,7.66,1.56Z" fill="#ffec2d" stroke-width="0"/></g><g id="B-8"><path id="C-29" d="m615.22,195.09c.83,3.91,3.57,4.9,6.52,4.31,3.92-.78,21.53-9.89,21.53-9.89,0,0-19.76-1.68-23.68-.9-2.94.59-5.15,2.55-4.37,6.48Z" fill="#ffec2d" stroke-width="0"/><path id="C-30" d="m555.15,284.98c-3.91.83-4.9,3.57-4.31,6.52.78,3.92,9.89,21.53,9.89,21.53,0,0,1.68-19.76.9-23.68-.59-2.94-2.55-5.15-6.48-4.37Z" fill="#ffec2d" stroke-width="0"/><path id="C-31" d="m465.25,224.91c-.83-3.91-3.57-4.9-6.52-4.31-3.92.78-21.53,9.89-21.53,9.89,0,0,19.76,1.68,23.68.9,2.94-.59,5.15-2.55,4.37-6.48Z" fill="#ffec2d" stroke-width="0"/><path id="C-32" d="m525.32,135.02c3.91-.83,4.9-3.57,4.31-6.52-.78-3.92-9.89-21.53-9.89-21.53,0,0-1.68,19.76-.9,23.68.59,2.94,2.55,5.15,6.48,4.37Z" fill="#ffec2d" stroke-width="0"/></g></g><path d="m528.23,355.73c-1.8.1-3.55.33-5.27.88-2.35.32-4.6,1.13-6.93,1.52l-.93.15-1.57.15c.1.43.17.87.17,1.3s-.05.88-.17,1.25c-.1.35-.42.78-.67,1.05-.33.37-.68.68-1.1.88-.4.2-.85.28-1.3.32-.45.02-.92,0-1.35-.17-.45-.15-.87-.43-1.25-.77-.46.11-.93.2-1.4.25-.47.05-.9.05-1.32,0-.47-.13-.95-.28-1.4-.47-.45-.19-.89-.42-1.3-.68-1.7,1-3.6,1.95-4.63,3.7-.58.8-.7,1.72-.83,2.67-.08,1.17.22,2.4.72,3.48.18.32.33-1.15.9-1.35.95-.78,2.13-1.35,3.33-1.67,1.02-.52.88.03.47.83-.1.42-.67,2,.1,1.2,3.38-1.5,7.13-1.8,10.78-2.08,5.3-.55,10.62-.67,15.93-.73l15,.32c2.38.07,4.78.6,7.13.2.57-.15,1.45-.18,1.78-.52-1.07-.62-2.32-.63-3.5-.78h-9.53c-2.65-.27-5.42-.3-7.92-1.3-.67-.27-1.28-.9-1.92-.22-.95.33-1.97.57-2.97.63-1.75.13-3.5-.23-5.12-.88,1.17-1.62,2.57-3.03,3.85-4.53-1.03-.17-2.03-.38-3.07-.63,1.82-1.25,3.5-2.67,5.27-4h0Z" fill="#ffec2d" stroke-width="0"/><path d="m606.1,373.01c-3.62,2.17-6.39-1.68-9.42-2.84-2.16,1.17-2.36,5.1-4.39,6.96-2.42,2.75-5.38-.77-5.16-3.48-2.89,2.44-4.35,7.96-9.03,7.22-2.22-1.81-3.86-5.6-5.55-1.28-1.38,2.11-5.05,5.11-6.96,1.93-.59-2.82-2-6.12-3.53-1.65-1.05,3.16-4.42,5.49-7.69,4.1-1.79-1.46,1.43-6.86-.84-6.48-3.4,2.25-5.38,7.83-10.12,7.38-1.84-2.07,1.12-5.57-.9-7.87-2.39,3.06-5.03,7.54-9.16,7.87-1.99-1.62.08-6.25-1.2-6.94-4.23,2.54-8.7,7.06-14.03,5.65,2.08-7.94,10.74-10.72,18.04-11.34,12.54-1.54,25.74,1.29,37.81-3.23,1.95-1.19,6.67-2.87,4.99-5.62-1.49-2.17,3.88-1.32,4.39-3.86-.32-3.21,2.46-2.77,5.18-3.05,12.19-.53,24.23,2.04,36.38,2.48.92,5.92-5.65,10.08-10.94,8.25-2.53.41-6.31-5.81-5.57-1.29-.51,2.37-.15,5.51-2.32,7.09m-103.7-12.12c2.82,2.58,4.8-.49,7.44-1.61,8.85-3.04,16.56-8.36,24.17-13.67,4.61-3.82,8.61-8.76,14.8-10,12.08-3.65,24.92-3.21,37.04-6.58,9.23-12.64,24.91-17.15,38.05-24.42,2.95-.92,4.09-3.34,5.03-6.02,5.01-7.92,11.84-14.93,19.92-19.72,3.82-2.09,8.38-3.29,12.71-2.34-.31,5.15-3.27,9.72-6.84,13.29,2.92-.06,5.43-1.91,8.38-1.81,1.01,5.29-4.7,8.06-7.74,11.35,1.69.39,8.18.88,4.64,2.58-4.5,3.12-9.64,5.27-13.8,8.9,3.84.69,4.27,1.5.37,2.89-2.11,1.43-6.17,1.93-6.56,4.72,2.9,1.78-1.33,3.55-2.97,4.13-3.12.73-6.4,2.08-2.25,4.45-1.57,2.37-4.93,2.87-7.68,2.64.83,2.68,2.04,5.69-1.45,6.87-7.81,5.9-16.98,10.2-26.8,11.18,12.27.94,24.9-1.33,35.39-8.01,1.38-1.64,8.64-3.39,4.58-4.77-1.91-.8-6.01-1.68-6.28-3.14,5.68-3.5,12.83-2.26,18.94-4.34.16-1.98-4.65-1.43-6.44-1.88-4.27-.35-4.02-1.44.1-1.84,5.21-1.38,11.11-1.65,15.5-5.05-3.57-1.65-8.06-.2-11.87-1.55,6.46-2.83,14.07-3.11,19.86-7.35,2.64-2.93-3.38-2.02-5.13-1.95-3.58.62-5.23-1.09-1.17-2.57,6.93-5.11,15.72-8.43,20.59-15.85,1.15-1.66,2.72-6.66-.96-4.86-4.84,1.61-9.1,7.05-14.61,5.37,10.87-8.42,21.21-18.01,28.63-29.67.38-3.36-4.89-3.73-6.27-1.09-6.98,6.73-13.3,14.67-22.24,18.89,8.56-8.26,15.64-18.05,21.81-28.19,1.32-3.02,4.88-6.64,2.95-9.99-3.11-2.58-7.01-.22-8.62,2.87-5.43,7.09-9.55,15.35-16.53,21.12,6.11-11.66,12.44-24.07,12.59-37.52-.02-2.77-.58-6.85-4.34-6.33-2.98.53-2.27,5-3.5,7.25-2.71,9.19-3.98,19.14-9.53,27.18,1.25-7.47,3.43-15.25,1.76-22.79-.78-3.37-6.22-1.92-5.52,1.41-6.5,32.93-28.6,61.73-57.49,78.39-13.23,7.49-28.01,12.31-43.05,14.5-4.04.89-8.42.37-12.29,1.74-9.37,7.18-15.04,19.2-26.9,22.97-5.32,2.64-12.25,3.18-16.05,8.12-.33.63-.4,1.36-.39,2.06" fill="#ffec2d" stroke-width="0"/><path d="m537.9,327.48c-1.75,3.18-2.78,6.83-5.03,9.67-6.77-6.16-16.59-5.96-25.17-6.37-7.09-.38-14.8-1.03-20.28-6.09-5.77-4.73-10.48-10.86-16.93-14.7-5.88-1.6-11.82-3.6-16.55-7.64-10.11-8.24-15.9-20.47-25.78-28.97-1.88-1.85-4.1-3.29-6.21-4.86-2.01.49-1.1,4.82-3.55,2.61-1.33-.95-4.67-1.04-4.98.28,3.02,3.98,6.04,8.52,6.46,13.61-2.06.21-5.72-.43-6.74.33,2.74,4.1,6.24,7.74,10.23,10.63-1.91.31-5.68.14-6.41.91,3.95,3.22,8.2,6.52,13.37,7.35,1.06,1.4-1.55,4.1.64,5.29,1.27.52,5.47,1.39,2.58,2.84-1.98,1.34-1.25,4.45,1.29,4.39,1.61.82,5.21,1.02,5.49,2.44-1.42,1.45-5.85,3.16-2.08,4.52,3.52,1.95,7.53,3.22,11.55,3.36-2.02,1.7-4.5,2.66-6.58,4.26,9.27,5.44,19.56,9.02,29.72,12.46,4.05,1.35,8.14,2.61,12.33,3.4-12.18-.7-23.96-4.31-35.06-9.25-5.75-2.52-11.54-4.96-17.44-7.13,2.58-1.35,5.57-1.67,8.25-2.84-5.56-1.11-11.64-1.48-16.53-4.54.75-1.34,3.59-1.4,5.16-2.08,2.96-.71,4.79-1.57.62-1.82-4.2-1.14-9.02-.63-12.73-3.16.24-1.52,4.11-.99,5.69-1.65,1.99-.34,4.2-.63,5.79-1.96-6.5-2.69-14.99-.79-20.08-6.52-1.17-2.19,3.64-.42,5.02-.79,3.49,0,7.23,1.11,10.55-.3-9.47-4.16-19.61-8.05-26.83-15.74-.8-1.24-3.2-4.61-1.27-5.03,5.62.74,9.69,6.88,15.7,5.92.8-1.08-3.49-2.84-4.56-4.38-8.76-7.52-17.27-15.68-23.41-25.53-.42-3.29,4.75-3.78,6.11-1.24,6.7,6.46,12.76,13.99,21.11,18.4,2.96,1.44-1.7-1.7-2.32-2.84-7.71-8.96-15.06-18.42-20.45-28.97-.96-1.9-2.56-5.34.32-6.35,2.89-1.45,5.75.52,7.21,3,5.67,7.15,9.84,15.65,16.91,21.61-6.02-11.68-12.44-23.97-12.6-37.41.14-2.6.31-6.55,3.84-6.44,2.97-.45,2.5,3.35,3.47,5.16,2.92,9.87,4.2,20.56,10.06,29.28-1.3-7.32-3.2-14.87-1.93-22.31.29-2.45,3.04-3.18,4.84-1.71,1.45,3.55,1.76,7.95,3.08,11.75,7.53,25.76,24.44,48.42,46.47,63.62,18.15,12.45,39.68,19.88,61.66,21.17,1.98.17,3.98.23,5.97.36" fill="#ffec2d" stroke-width="0"/><circle cx="510" cy="360.44" r="1.18" fill="#ffec2d" stroke-width="0"/><circle cx="509.9" cy="360.25" r=".48" fill="#ffec2d" stroke="#ffec2d" stroke-miterlimit="2" stroke-width=".19"/><g id="D"><g id="E"><path d="m60,36.46s-4.81-4.04-6.44-2.01c-2.62,3.26,8.07,19.48,8.07,25.2,0,9.38-6.26,11.93-13.99,13.27-5.19.9-13.63-.38-13.63-.38,1.59-2.14,2.62-2.77,5.3-2.94-2.98-1.55-6.02-4.91-6.02-10.14,0-8.07,3.32-11.4,3.32-20.49,0-5.05-4.14-11.47-4.14-11.47,7.31.73,10.94,7.5,8.88,12.92,1.16.17,2.22-.1,3.13-.96.53,1.5-.31,3.24-1.44,4.74.91.49,1.58.19,3.03-.1-.14,1.55-1.06,3.19-3.33,4.73,6.58-1.71,10.62,2.88,10.62,7.67,0,3.62-2.54,6.22-5.02,6.22-.8,0-1.98-.33-2.65-.83-.47,1-.23,2.33.26,3.33-1.82-.48-2.97-1.56-2.15-3.81-1.4-.13-2.51-.6-3.26-1.5.77-.98,1.93-1.55,3.26-1.5-1.02-2.1.12-3.28,1.77-4.23,0,0-1.05,4.23,1.63,4.23,1.21,0,2.31-.39,2.31-2.17,0-1.55-1.35-3.69-4.48-3.56s-5.67,2.16-5.67,7.15c0,4.61,3.72,6.9,8.61,7.05,4.42.14,7.75-2.26,7.75-6.81,0-6.06-8.75-19.89-8.75-25.29,0-4.06,3.65-6.32,7.21-6.32,4.63,0,8.53,4.58,8.53,4.58l-2.72,3.41h0Z" fill="#ffec2d" stroke-width="0"/><path id="F" d="m61.01,146.07c0,10.13-9.1,15.34-16.25,15.34-9.63,0-14.76-5.76-14.76-13.3,0-4.27.78-6.96,2.75-11.05l22.08-45.83c.77-1.59,1.02-3.41,1.02-6.07,0-4.11-3.99-7.47-8.16-7.57-3.81-.1-7.96,3.55-7.96,7.71,0,5.05,2.62,7.3,5.31,7.3,3.31,0,4.63-1.36,4.63-3.68,0-1.62-.78-2.32-1.9-2.32-2.84,0-2.04,3.82-2.04,3.82-1.41-.31-2.57-1.75-1.9-3.55-1.07-.24-2.04-.81-2.76-1.64.76-.74,1.63-1.31,2.76-1.5-.66-2.19.22-3.27,2.14-3.72-.39.84-.4,1.62-.27,2.35,3.02-.86,7.65.51,7.65,5.73s-3.6,9.55-10.34,8.46c1.6.77,2.42,2.34,2.58,4.09-1.22-.48-2.58-.54-2.58-.54.79,1.39,1.88,2.59,1.84,5.32-1.25-.57-2.41-1.62-4.01-.96,2.51,4.95-.58,11.76-8.44,13.37,2.88-3.37,4.29-7.01,4.29-10.64,0-11.75-3.26-13.72-3.26-21.89,0-3.42,1.76-7.11,5.24-9.62v.14c-2.3-.62-3.78-1.75-4.62-3.29,5.26-1.49,12.9-1.46,17,.15,4.72.55,8.01,4.17,8.98,6s2.85,8.48,0,14.46l-22.45,47.6c-.97,2.08-1.56,4.29-1.56,6.68,0,6.01,5.51,8.12,8.64,8.12,3.74,0,7.55-2.85,7.55-6.41,0-2.26-1.22-3.61-2.99-3.61-4.23,0-3.97,3.6-3.13,5.86-2.63-1.18-4.16-3.3-3.74-5.52-1.49-.2-2.91-.91-4.22-2.39,1.03-1.3,2.29-2.28,4.22-2.32-.84-3.46,1.47-4.92,3.74-5.73-.72,2.54-1.19,5.46,3.13,5.46,3.15,0,5.63.55,7.08,2.59l.34-13.5c.18-4.05-5.42-3.93-8.98-2.73,1.34-4.66,4.1-7.18,10.48-6.55-1.55-.65-3.2-2.1-3.2-4.91,0-3.8,3.08-8,5.1-9.25l1.01,39.53h0Z" fill="#ffec2d" stroke-width="0"/><path id="F-2" d="m61.01,176.47c0-10.13-9.1-15.34-16.25-15.34-9.63,0-14.76,5.76-14.76,13.3,0,4.27.78,6.96,2.75,11.05l22.08,45.83c.77,1.59,1.02,3.41,1.02,6.07,0,4.11-3.99,7.47-8.16,7.57-3.81.1-7.96-3.55-7.96-7.71,0-5.05,2.62-7.3,5.31-7.3,3.31,0,4.63,1.36,4.63,3.68,0,1.62-.78,2.32-1.9,2.32-2.84,0-2.04-3.82-2.04-3.82-1.41.31-2.57,1.75-1.9,3.55-1.07.24-2.04.81-2.76,1.64.76.74,1.63,1.31,2.76,1.5-.66,2.19.22,3.27,2.14,3.72-.39-.84-.4-1.62-.27-2.35,3.02.86,7.65-.51,7.65-5.73s-3.6-9.55-10.34-8.46c1.6-.77,2.42-2.34,2.58-4.09-1.22.48-2.58.54-2.58.54.79-1.39,1.88-2.59,1.84-5.32-1.25.57-2.41,1.62-4.01.96,2.51-4.95-.58-11.76-8.44-13.37,2.88,3.37,4.29,7.01,4.29,10.64,0,11.75-3.26,13.72-3.26,21.89,0,3.42,1.76,7.11,5.24,9.62v-.14c-2.3.62-3.78,1.75-4.62,3.29,5.26,1.49,12.9,1.46,17-.15,4.72-.55,8.01-4.17,8.98-6s2.85-8.48,0-14.46l-22.45-47.6c-.97-2.08-1.56-4.29-1.56-6.68,0-6.01,5.51-8.12,8.64-8.12,3.74,0,7.55,2.85,7.55,6.41,0,2.26-1.22,3.61-2.99,3.61-4.23,0-3.97-3.6-3.13-5.86-2.63,1.18-4.16,3.3-3.74,5.52-1.49.2-2.91.91-4.22,2.39,1.03,1.3,2.29,2.28,4.22,2.32-.84,3.46,1.47,4.92,3.74,5.73-.72-2.54-1.19-5.46,3.13-5.46,3.15,0,5.63-.55,7.08-2.59l.34,13.5c.18,4.05-5.42,3.93-8.98,2.73,1.34,4.66,4.1,7.18,10.48,6.55-1.55.65-3.2,2.1-3.2,4.91,0,3.8,3.08,8,5.1,9.25l1.01-39.53h0Z" fill="#ffec2d" stroke-width="0"/></g><g id="E-2"><path d="m60,36.46s4.81-4.04,6.44-2.01c2.62,3.26-8.07,19.48-8.07,25.2,0,9.38,6.26,11.93,13.99,13.27,5.19.9,13.63-.38,13.63-.38-1.59-2.14-2.62-2.77-5.3-2.94,2.98-1.55,6.02-4.91,6.02-10.14,0-8.07-3.32-11.4-3.32-20.49,0-5.05,4.14-11.47,4.14-11.47-7.31.73-10.94,7.5-8.88,12.92-1.16.17-2.22-.1-3.13-.96-.53,1.5.31,3.24,1.44,4.74-.91.49-1.58.19-3.03-.1.14,1.55,1.06,3.19,3.33,4.73-6.58-1.71-10.62,2.88-10.62,7.67,0,3.62,2.54,6.22,5.02,6.22.8,0,1.98-.33,2.65-.83.47,1,.23,2.33-.26,3.33,1.82-.48,2.97-1.56,2.15-3.81,1.4-.13,2.51-.6,3.26-1.5-.77-.98-1.93-1.55-3.26-1.5,1.02-2.1-.12-3.28-1.77-4.23,0,0,1.05,4.23-1.63,4.23-1.21,0-2.31-.39-2.31-2.17,0-1.55,1.35-3.69,4.48-3.56s5.67,2.16,5.67,7.15c0,4.61-3.72,6.9-8.61,7.05-4.42.14-7.75-2.26-7.75-6.81,0-6.06,8.75-19.89,8.75-25.29,0-4.06-3.65-6.32-7.21-6.32-4.63,0-8.53,4.58-8.53,4.58l2.72,3.41h0Z" fill="#ffec2d" stroke-width="0"/><path id="F-3" d="m58.99,146.07c0,10.13,9.1,15.34,16.25,15.34,9.63,0,14.76-5.76,14.76-13.3,0-4.27-.78-6.96-2.75-11.05l-22.08-45.83c-.77-1.59-1.02-3.41-1.02-6.07,0-4.11,3.99-7.47,8.16-7.57,3.81-.1,7.96,3.55,7.96,7.71,0,5.05-2.62,7.3-5.31,7.3-3.31,0-4.63-1.36-4.63-3.68,0-1.62.78-2.32,1.9-2.32,2.84,0,2.04,3.82,2.04,3.82,1.41-.31,2.57-1.75,1.9-3.55,1.07-.24,2.04-.81,2.76-1.64-.76-.74-1.63-1.31-2.76-1.5.66-2.19-.22-3.27-2.14-3.72.39.84.4,1.62.27,2.35-3.02-.86-7.65.51-7.65,5.73s3.6,9.55,10.34,8.46c-1.6.77-2.42,2.34-2.58,4.09,1.22-.48,2.58-.54,2.58-.54-.79,1.39-1.88,2.59-1.84,5.32,1.25-.57,2.41-1.62,4.01-.96-2.51,4.95.58,11.76,8.44,13.37-2.88-3.37-4.29-7.01-4.29-10.64,0-11.75,3.26-13.72,3.26-21.89,0-3.42-1.76-7.11-5.24-9.62v.14c2.3-.62,3.78-1.75,4.62-3.29-5.26-1.49-12.9-1.46-17,.15-4.72.55-8.01,4.17-8.98,6s-2.85,8.48,0,14.46l22.45,47.6c.97,2.08,1.56,4.29,1.56,6.68,0,6.01-5.51,8.12-8.64,8.12-3.74,0-7.55-2.85-7.55-6.41,0-2.26,1.22-3.61,2.99-3.61,4.23,0,3.97,3.6,3.13,5.86,2.63-1.18,4.16-3.3,3.74-5.52,1.49-.2,2.91-.91,4.22-2.39-1.03-1.3-2.29-2.28-4.22-2.32.84-3.46-1.47-4.92-3.74-5.73.72,2.54,1.19,5.46-3.13,5.46-3.15,0-5.63.55-7.08,2.59l-.34-13.5c-.18-4.05,5.42-3.93,8.98-2.73-1.34-4.66-4.1-7.18-10.48-6.55,1.55-.65,3.2-2.1,3.2-4.91,0-3.8-3.08-8-5.1-9.25l-1.01,39.53h0Z" fill="#ffec2d" stroke-width="0"/><path id="F-4" d="m58.99,176.47c0-10.13,9.1-15.34,16.25-15.34,9.63,0,14.76,5.76,14.76,13.3,0,4.27-.78,6.96-2.75,11.05l-22.08,45.83c-.77,1.59-1.02,3.41-1.02,6.07,0,4.11,3.99,7.47,8.16,7.57,3.81.1,7.96-3.55,7.96-7.71,0-5.05-2.62-7.3-5.31-7.3-3.31,0-4.63,1.36-4.63,3.68,0,1.62.78,2.32,1.9,2.32,2.84,0,2.04-3.82,2.04-3.82,1.41.31,2.57,1.75,1.9,3.55,1.07.24,2.04.81,2.76,1.64-.76.74-1.63,1.31-2.76,1.5.66,2.19-.22,3.27-2.14,3.72.39-.84.4-1.62.27-2.35-3.02.86-7.65-.51-7.65-5.73s3.6-9.55,10.34-8.46c-1.6-.77-2.42-2.34-2.58-4.09,1.22.48,2.58.54,2.58.54-.79-1.39-1.88-2.59-1.84-5.32,1.25.57,2.41,1.62,4.01.96-2.51-4.95.58-11.76,8.44-13.37-2.88,3.37-4.29,7.01-4.29,10.64,0,11.75,3.26,13.72,3.26,21.89,0,3.42-1.76,7.11-5.24,9.62v-.14c2.3.62,3.78,1.75,4.62,3.29-5.26,1.49-12.9,1.46-17-.15-4.72-.55-8.01-4.17-8.98-6s-2.85-8.48,0-14.46l22.45-47.6c.97-2.08,1.56-4.29,1.56-6.68,0-6.01-5.51-8.12-8.64-8.12-3.74,0-7.55,2.85-7.55,6.41,0,2.26,1.22,3.61,2.99,3.61,4.23,0,3.97-3.6,3.13-5.86,2.63,1.18,4.16,3.3,3.74,5.52,1.49.2,2.91.91,4.22,2.39-1.03,1.3-2.29,2.28-4.22,2.32.84,3.46-1.47,4.92-3.74,5.73.72-2.54,1.19-5.46-3.13-5.46-3.15,0-5.63-.55-7.08-2.59l-.34,13.5c-.18,4.05,5.42,3.93,8.98,2.73-1.34,4.66-4.1,7.18-10.48,6.55,1.55.65,3.2,2.1,3.2,4.91,0,3.8-3.08,8-5.1,9.25l-1.01-39.53h0Z" fill="#ffec2d" stroke-width="0"/></g></g><g id="D-2"><g id="E-3"><path d="m60,463.54s-4.81,4.04-6.44,2.01c-2.62-3.26,8.07-19.48,8.07-25.2,0-9.38-6.26-11.93-13.99-13.27-5.19-.9-13.63.38-13.63.38,1.59,2.14,2.62,2.77,5.3,2.94-2.98,1.55-6.02,4.91-6.02,10.14,0,8.07,3.32,11.4,3.32,20.49,0,5.05-4.14,11.47-4.14,11.47,7.31-.73,10.94-7.5,8.88-12.92,1.16-.17,2.22.1,3.13.96.53-1.5-.31-3.24-1.44-4.74.91-.49,1.58-.19,3.03.1-.14-1.55-1.06-3.19-3.33-4.73,6.58,1.71,10.62-2.88,10.62-7.67,0-3.62-2.54-6.22-5.02-6.22-.8,0-1.98.33-2.65.83-.47-1-.23-2.33.26-3.33-1.82.48-2.97,1.56-2.15,3.81-1.4.13-2.51.6-3.26,1.5.77.98,1.93,1.55,3.26,1.5-1.02,2.1.12,3.28,1.77,4.23,0,0-1.05-4.23,1.63-4.23,1.21,0,2.31.39,2.31,2.17,0,1.55-1.35,3.69-4.48,3.56s-5.67-2.16-5.67-7.15c0-4.61,3.72-6.9,8.61-7.05,4.42-.14,7.75,2.26,7.75,6.81,0,6.06-8.75,19.89-8.75,25.29,0,4.06,3.65,6.32,7.21,6.32,4.63,0,8.53-4.58,8.53-4.58l-2.72-3.41h0Z" fill="#ffec2d" stroke-width="0"/><path id="F-5" d="m61.01,353.93c0-10.13-9.1-15.34-16.25-15.34-9.63,0-14.76,5.76-14.76,13.3,0,4.27.78,6.96,2.75,11.05l22.08,45.83c.77,1.59,1.02,3.41,1.02,6.07,0,4.11-3.99,7.47-8.16,7.57-3.81.1-7.96-3.55-7.96-7.71,0-5.05,2.62-7.3,5.31-7.3,3.31,0,4.63,1.36,4.63,3.68,0,1.62-.78,2.32-1.9,2.32-2.84,0-2.04-3.82-2.04-3.82-1.41.31-2.57,1.75-1.9,3.55-1.07.24-2.04.81-2.76,1.64.76.74,1.63,1.31,2.76,1.5-.66,2.19.22,3.27,2.14,3.72-.39-.84-.4-1.62-.27-2.35,3.02.86,7.65-.51,7.65-5.73s-3.6-9.55-10.34-8.46c1.6-.77,2.42-2.34,2.58-4.09-1.22.48-2.58.54-2.58.54.79-1.39,1.88-2.59,1.84-5.32-1.25.57-2.41,1.62-4.01.96,2.51-4.95-.58-11.76-8.44-13.37,2.88,3.37,4.29,7.01,4.29,10.64,0,11.75-3.26,13.72-3.26,21.89,0,3.42,1.76,7.11,5.24,9.62v-.14c-2.3.62-3.78,1.75-4.62,3.29,5.26,1.49,12.9,1.46,17-.15,4.72-.55,8.01-4.17,8.98-6s2.85-8.48,0-14.46l-22.45-47.6c-.97-2.08-1.56-4.29-1.56-6.68,0-6.01,5.51-8.12,8.64-8.12,3.74,0,7.55,2.85,7.55,6.41,0,2.26-1.22,3.61-2.99,3.61-4.23,0-3.97-3.6-3.13-5.86-2.63,1.18-4.16,3.3-3.74,5.52-1.49.2-2.91.91-4.22,2.39,1.03,1.3,2.29,2.28,4.22,2.32-.84,3.46,1.47,4.92,3.74,5.73-.72-2.54-1.19-5.46,3.13-5.46,3.15,0,5.63-.55,7.08-2.59l.34,13.5c.18,4.05-5.42,3.93-8.98,2.73,1.34,4.66,4.1,7.18,10.48,6.55-1.55.65-3.2,2.1-3.2,4.91,0,3.8,3.08,8,5.1,9.25l1.01-39.53h0Z" fill="#ffec2d" stroke-width="0"/><path id="F-6" d="m61.01,323.53c0,10.13-9.1,15.34-16.25,15.34-9.63,0-14.76-5.76-14.76-13.3,0-4.27.78-6.96,2.75-11.05l22.08-45.83c.77-1.59,1.02-3.41,1.02-6.07,0-4.11-3.99-7.47-8.16-7.57-3.81-.1-7.96,3.55-7.96,7.71,0,5.05,2.62,7.3,5.31,7.3,3.31,0,4.63-1.36,4.63-3.68,0-1.62-.78-2.32-1.9-2.32-2.84,0-2.04,3.82-2.04,3.82-1.41-.31-2.57-1.75-1.9-3.55-1.07-.24-2.04-.81-2.76-1.64.76-.74,1.63-1.31,2.76-1.5-.66-2.19.22-3.27,2.14-3.72-.39.84-.4,1.62-.27,2.35,3.02-.86,7.65.51,7.65,5.73s-3.6,9.55-10.34,8.46c1.6.77,2.42,2.34,2.58,4.09-1.22-.48-2.58-.54-2.58-.54.79,1.39,1.88,2.59,1.84,5.32-1.25-.57-2.41-1.62-4.01-.96,2.51,4.95-.58,11.76-8.44,13.37,2.88-3.37,4.29-7.01,4.29-10.64,0-11.75-3.26-13.72-3.26-21.89,0-3.42,1.76-7.11,5.24-9.62v.14c-2.3-.62-3.78-1.75-4.62-3.29,5.26-1.49,12.9-1.46,17,.15,4.72.55,8.01,4.17,8.98,6s2.85,8.48,0,14.46l-22.45,47.6c-.97,2.08-1.56,4.29-1.56,6.68,0,6.01,5.51,8.12,8.64,8.12,3.74,0,7.55-2.85,7.55-6.41,0-2.26-1.22-3.61-2.99-3.61-4.23,0-3.97,3.6-3.13,5.86-2.63-1.18-4.16-3.3-3.74-5.52-1.49-.2-2.91-.91-4.22-2.39,1.03-1.3,2.29-2.28,4.22-2.32-.84-3.46,1.47-4.92,3.74-5.73-.72,2.54-1.19,5.46,3.13,5.46,3.15,0,5.63.55,7.08,2.59l.34-13.5c.18-4.05-5.42-3.93-8.98-2.73,1.34-4.66,4.1-7.18,10.48-6.55-1.55-.65-3.2-2.1-3.2-4.91,0-3.8,3.08-8,5.1-9.25l1.01,39.53h0Z" fill="#ffec2d" stroke-width="0"/></g><g id="E-4"><path d="m60,463.54s4.81,4.04,6.44,2.01c2.62-3.26-8.07-19.48-8.07-25.2,0-9.38,6.26-11.93,13.99-13.27,5.19-.9,13.63.38,13.63.38-1.59,2.14-2.62,2.77-5.3,2.94,2.98,1.55,6.02,4.91,6.02,10.14,0,8.07-3.32,11.4-3.32,20.49,0,5.05,4.14,11.47,4.14,11.47-7.31-.73-10.94-7.5-8.88-12.92-1.16-.17-2.22.1-3.13.96-.53-1.5.31-3.24,1.44-4.74-.91-.49-1.58-.19-3.03.1.14-1.55,1.06-3.19,3.33-4.73-6.58,1.71-10.62-2.88-10.62-7.67,0-3.62,2.54-6.22,5.02-6.22.8,0,1.98.33,2.65.83.47-1,.23-2.33-.26-3.33,1.82.48,2.97,1.56,2.15,3.81,1.4.13,2.51.6,3.26,1.5-.77.98-1.93,1.55-3.26,1.5,1.02,2.1-.12,3.28-1.77,4.23,0,0,1.05-4.23-1.63-4.23-1.21,0-2.31.39-2.31,2.17,0,1.55,1.35,3.69,4.48,3.56s5.67-2.16,5.67-7.15c0-4.61-3.72-6.9-8.61-7.05-4.42-.14-7.75,2.26-7.75,6.81,0,6.06,8.75,19.89,8.75,25.29,0,4.06-3.65,6.32-7.21,6.32-4.63,0-8.53-4.58-8.53-4.58l2.72-3.41h0Z" fill="#ffec2d" stroke-width="0"/><path id="F-7" d="m58.99,353.93c0-10.13,9.1-15.34,16.25-15.34,9.63,0,14.76,5.76,14.76,13.3,0,4.27-.78,6.96-2.75,11.05l-22.08,45.83c-.77,1.59-1.02,3.41-1.02,6.07,0,4.11,3.99,7.47,8.16,7.57,3.81.1,7.96-3.55,7.96-7.71,0-5.05-2.62-7.3-5.31-7.3-3.31,0-4.63,1.36-4.63,3.68,0,1.62.78,2.32,1.9,2.32,2.84,0,2.04-3.82,2.04-3.82,1.41.31,2.57,1.75,1.9,3.55,1.07.24,2.04.81,2.76,1.64-.76.74-1.63,1.31-2.76,1.5.66,2.19-.22,3.27-2.14,3.72.39-.84.4-1.62.27-2.35-3.02.86-7.65-.51-7.65-5.73s3.6-9.55,10.34-8.46c-1.6-.77-2.42-2.34-2.58-4.09,1.22.48,2.58.54,2.58.54-.79-1.39-1.88-2.59-1.84-5.32,1.25.57,2.41,1.62,4.01.96-2.51-4.95.58-11.76,8.44-13.37-2.88,3.37-4.29,7.01-4.29,10.64,0,11.75,3.26,13.72,3.26,21.89,0,3.42-1.76,7.11-5.24,9.62v-.14c2.3.62,3.78,1.75,4.62,3.29-5.26,1.49-12.9,1.46-17-.15-4.72-.55-8.01-4.17-8.98-6s-2.85-8.48,0-14.46l22.45-47.6c.97-2.08,1.56-4.29,1.56-6.68,0-6.01-5.51-8.12-8.64-8.12-3.74,0-7.55,2.85-7.55,6.41,0,2.26,1.22,3.61,2.99,3.61,4.23,0,3.97-3.6,3.13-5.86,2.63,1.18,4.16,3.3,3.74,5.52,1.49.2,2.91.91,4.22,2.39-1.03,1.3-2.29,2.28-4.22,2.32.84,3.46-1.47,4.92-3.74,5.73.72-2.54,1.19-5.46-3.13-5.46-3.15,0-5.63-.55-7.08-2.59l-.34,13.5c-.18,4.05,5.42,3.93,8.98,2.73-1.34,4.66-4.1,7.18-10.48,6.55,1.55.65,3.2,2.1,3.2,4.91,0,3.8-3.08,8-5.1,9.25l-1.01-39.53h0Z" fill="#ffec2d" stroke-width="0"/><path id="F-8" d="m58.99,323.53c0,10.13,9.1,15.34,16.25,15.34,9.63,0,14.76-5.76,14.76-13.3,0-4.27-.78-6.96-2.75-11.05l-22.08-45.83c-.77-1.59-1.02-3.41-1.02-6.07,0-4.11,3.99-7.47,8.16-7.57,3.81-.1,7.96,3.55,7.96,7.71,0,5.05-2.62,7.3-5.31,7.3-3.31,0-4.63-1.36-4.63-3.68,0-1.62.78-2.32,1.9-2.32,2.84,0,2.04,3.82,2.04,3.82,1.41-.31,2.57-1.75,1.9-3.55,1.07-.24,2.04-.81,2.76-1.64-.76-.74-1.63-1.31-2.76-1.5.66-2.19-.22-3.27-2.14-3.72.39.84.4,1.62.27,2.35-3.02-.86-7.65.51-7.65,5.73s3.6,9.55,10.34,8.46c-1.6.77-2.42,2.34-2.58,4.09,1.22-.48,2.58-.54,2.58-.54-.79,1.39-1.88,2.59-1.84,5.32,1.25-.57,2.41-1.62,4.01-.96-2.51,4.95.58,11.76,8.44,13.37-2.88-3.37-4.29-7.01-4.29-10.64,0-11.75,3.26-13.72,3.26-21.89,0-3.42-1.76-7.11-5.24-9.62v.14c2.3-.62,3.78-1.75,4.62-3.29-5.26-1.49-12.9-1.46-17,.15-4.72.55-8.01,4.17-8.98,6s-2.85,8.48,0,14.46l22.45,47.6c.97,2.08,1.56,4.29,1.56,6.68,0,6.01-5.51,8.12-8.64,8.12-3.74,0-7.55-2.85-7.55-6.41,0-2.26,1.22-3.61,2.99-3.61,4.23,0,3.97,3.6,3.13,5.86,2.63-1.18,4.16-3.3,3.74-5.52,1.49-.2,2.91-.91,4.22-2.39-1.03-1.3-2.29-2.28-4.22-2.32.84-3.46-1.47-4.92-3.74-5.73.72,2.54,1.19,5.46-3.13,5.46-3.15,0-5.63.55-7.08,2.59l-.34-13.5c-.18-4.05,5.42-3.93,8.98-2.73-1.34-4.66-4.1-7.18-10.48-6.55,1.55-.65,3.2-2.1,3.2-4.91,0-3.8-3.08-8-5.1-9.25l-1.01,39.53h0Z" fill="#ffec2d" stroke-width="0"/></g></g></svg>