<?xml version="1.0" encoding="UTF-8"?><svg id="_Слой_1" xmlns="http://www.w3.org/2000/svg" viewBox="0 0 1486.79 378.77"><path d="m97.68,66.59c0,3.83-.08,7.66,0,11.49.55,22.83.63,23.01,22.41,16.19,20.34-6.38,40.29-4.58,60.93-.49,29,5.73,53,19.36,71.36,41.74,16.36,19.93,26.46,41.88,29.82,69.25,2.31,18.75,3.49,37.1,1.93,55.94-3.69,44.42-36.43,92.29-80.64,107.6-37.06,12.84-98.06,9.35-111.35,8.79-11.45-.49-19.6-.88-36.63-2.1-5.85.73,1.2-12.33,2.43-15.15,11.6-26.81,25.09-55.59,46.03-84.42,9.09-12.82,20.81-21.91,33-30.54,4.7-3.33,13.52-4.38,12.34,7.93-1.09,11.42-.3,23.01-.22,34.53.02,2.6.57,5.61,3.11,6.6,3.53,1.37,5.64-1.96,7.16-4.17,6.07-8.88,7.59-19.72,9.87-29.71,2.03-8.89,4.95-17.7,6.12-27.03,1.28-10.19,11.81-15.42,20.53-19.19,9.23-3.99,10.31-10.41,6.59-17.04-3.75-6.66-9.67-4.02-16.09-.8-10.43,5.27-20.33,9.34-34.13,4.11-13.14-4.96-28.27-5.8-41.84-11.52-6.13-2.58-11.67,1.4-13.72,6.32-2,4.78,3.02,6.3,7.22,9.01,9.29,5.99,21.29,7.32,28.4,17.43,3.85,5.49,3.72,5.76-2.62,7.68-20.25,6.11-38.98,13.99-58.96,23-23.97,11.08-41.5,22.76-63.31,37.28-5.97,4.66-7.08,1.23-7.08-4.24,0-8.85-.08-17.7-.08-26.56C.27,178.64.56,98.76,0,18.89-.07,8.89,4.25,3.51,12.02,3.67c17.03.38,32.94-6.29,51.09-2.51,23.05,4.81,33.81,22.29,34.29,41.08.22,8.11.04,16.23.04,24.34h.23Z" fill="#90db00" stroke-width="0"/><path d="m589.84,203.35c0-49.07-.02-98.15.02-147.23,0-13.71,15.18-34.26,27.94-39.56,15.88-6.59,31.72-6.21,48.76-5.51,45.92,1.87,91.95.62,137.94.66,8.73,0,17.46.19,26.19.35,19.82.36,26.58,6.19,26.04,26.19-.36,13.04,5.23,26.39-4.91,39.42-9.02,11.57-20.04,15.24-32.84,15.4-36.78.5-73.57.15-110.36.21-11.61.02-17.18,7.81-16.12,19.85,1.02,11.4.59,22.95.57,34.43,0,10.69,3,16.37,15.82,16.05,36.31-.9,72.65-.02,108.97-.54,7.79-.11,11.68,2.33,14.05,9.37,5.55,16.45,11.54,32.52,3.96,50.27-4.79,11.21-19.99,23.36-31.94,23.39-32.19.07-64.38.46-96.57,0-9.09-.14-11.68,2.62-11.51,11.59.52,28.96-.44,57.95.52,86.89.36,10.72-3.21,19.73-6.53,29.16-1.96,5.58-7.05,4.83-11.66,4.82-18.85-.05-37.7-.2-56.55,0-14.28.15-22.26-9.09-27.35-20.1-3.73-8.05-4.8-17.54-4.78-26.81.07-42.77.02-85.53.02-128.29h.32Z" fill="#fff" stroke-width="0"/><path d="m1277.7,297.73c-.17-3.21-.99-6.54-.42-9.61,6.14-32.96-12.17-56.65-28.75-82.02-11.74-17.96-22.81-36.8-33.59-55.44-12.76-22.06-26.09-44.09-38.57-66.46-6.26-11.23-10.07-23.88-16.85-34.73-7.2-11.52-2.17-17.87,6.39-24.49,28.08-21.74,60.99-21.79,88.81-1.16,14.63,10.85,20.83,28.34,28.34,44.12,10.23,21.47,18.62,43.82,32.07,63.68,1.76,2.57,1.84,6.57,3.97,8.54,4.59,4.26.5,15.64,8.98,14.47,6.58-.91,7.58-10.5,10.11-16.52,14.37-34.31,28.75-68.62,42.05-103.34,5.11-13.32,13.49-18.13,26.94-21.71,16.35-4.36,31.05-4.46,47.5-.95,24.12,5.15,36.76,30.86,30.51,50.58-10.74,33.86-29.4,63.56-46.7,93.96-15.72,27.64-31.56,55.37-49.55,81.55-9.68,14.1-9.18,28.34-9.22,43.42-.04,28.48-.36,56.97.07,85.44.13,8.82-2.36,12.05-11.51,11.72-17.9-.64-35.82-.02-53.74-.22-22.7-.24-37.17-15.15-37.26-38.08-.05-14.24,0-28.48,0-42.72.14,0,.28,0,.42,0" fill="#fff" stroke-width="0"/><path d="m904.08,183.37c0-49.15-.71-98.32.27-147.45.57-28.82,1.69-28.7,28.4-29.28,10.56-.23,21.13.11,31.69-.07,31.94-.55,46.03,17.5,45.94,48.66-.22,75.34.1,150.69-.7,226.02-.14,12.17,3.91,14.54,14.61,14.39,32.61-.42,65.24-.22,97.86,0,33.43.23,33.21,5.06,37.84,38.26,2.66,19.04-7.08,31.25-18.63,43.17-1.74,1.8-6.07,1.43-9.22,1.44-61.57.06-123.13.22-184.7-.07-19.35-.1-43.21-26.79-43.25-47.61-.1-49.15-.03-98.31-.03-147.45h-.08" fill="#fff" stroke-width="0"/><path d="m437.91,12.07c-16.45-3.51-31.15-3.41-47.5.95-13.44,3.58-21.83,8.4-26.94,21.71-13.3,34.72-27.68,69.03-42.04,103.34-2.52,6.02-3.53,15.61-10.11,16.52-8.47,1.17-4.39-10.2-8.98-14.46-2.12-1.97-2.21-5.97-3.96-8.54-13.46-19.86-21.85-42.2-32.08-63.68-7.51-15.77-13.7-33.27-28.33-44.12-27.83-20.63-60.73-20.57-88.82,1.16-8.56,6.63-13.58,12.98-6.39,24.49,3.13,5.02,5.63,10.42,8.03,15.89,11.39.42,22.12,2.13,31.95,4.07,35.2,6.96,64.04,23.91,85.74,50.36,19.96,24.32,31.5,51.13,35.27,81.97,2.93,23.84,3.55,42.66,2.03,61.01-2.85,34.42-14.56,80.09-77.87,115.18,25.33,0,52.7.4,69.87.59,17.91.19,35.84-.42,53.74.22,9.15.33,11.65-2.9,11.51-11.71-.43-28.48-.11-56.97-.06-85.45.02-15.08-.47-29.33,9.22-43.42,17.98-26.18,33.82-53.91,49.55-81.55,17.3-30.41,35.96-60.1,46.71-93.96,6.25-19.72-6.39-45.43-30.52-50.58" fill="#fff" stroke-width="0"/></svg>