<?xml version="1.0" encoding="UTF-8"?><svg id="_Слой_1" xmlns="http://www.w3.org/2000/svg" viewBox="0 0 800 400"><rect width="800" height="400" fill="red" opacity=".28" stroke-width="0"/><g id="Camada_1-2"><path d="m453.74,127.55h-106.33c-10.64,0-19.31,8.67-19.31,19.31v106.33c0,10.64,8.67,19.31,19.31,19.31h106.33c10.64,0,19.31-8.67,19.31-19.31v-106.33c0-10.64-8.67-19.31-19.31-19.31Zm-106.33,137.39c-6.49,0-11.75-5.28-11.75-11.75v-13.83l19.37-19.37c1.89-1.89,4.42-2.94,7.11-2.94s5.2,1.05,7.11,2.94l12.18,12.18,32.79,32.79h-66.81v-.02Zm118.08-11.75c0,6.49-5.28,11.75-11.75,11.75h-28.88l-32.79-32.79,39.16-39.16c1.32-1.32,3.08-2.05,4.95-2.05s3.62.72,4.95,2.05l24.36,24.36v35.85Zm-19.02-65.55c-5.67-5.67-14.91-5.67-20.58,0l-39.16,39.16-12.18-12.18c-3.33-3.33-7.74-5.16-12.45-5.16s-9.12,1.83-12.45,5.16l-14.03,14.03v-81.8c0-6.49,5.28-11.75,11.75-11.75h106.33c6.49,0,11.75,5.28,11.75,11.75v59.8l-19.02-19.02h.04Z" fill="#fff" stroke-width="0"/><path d="m388.78,157.64c-8.59,0-15.57,6.99-15.57,15.57s6.99,15.57,15.57,15.57,15.57-6.99,15.57-15.57-6.99-15.57-15.57-15.57Zm0,23.6c-4.42,0-8.03-3.6-8.03-8.03s3.6-8.03,8.03-8.03,8.03,3.6,8.03,8.03-3.6,8.03-8.03,8.03Z" fill="#fff" stroke-width="0"/></g></svg>