<svg id="glipy_copy_2" viewBox="0 0 64 64" xmlns="http://www.w3.org/2000/svg" data-name="glipy copy 2"><g fill="#f00" opacity=".8"><path d="m47.99906 8.78385c-9.29834-.13893-15.21457 10.65727-10.16047 18.3815 6.39833 10.10517 22.10241 5.6078 22.16141-6.38075a12.01041 12.01041 0 0 0 -12.00094-12.00075zm5.32048 13.001h-10.641a1.00008 1.00008 0 1 1 0-2.00016h10.641a1.0002 1.0002 0 0 1 0 2.00018z"/><path d="m34.378 17.59453a13.71354 13.71354 0 0 1 4.06025-7.02053 39.10146 39.10146 0 0 0 -34.15258 10.93081 1.02535 1.02535 0 0 0 0 1.42016l3.86033 3.86029a1.01692 1.01692 0 0 0 1.42015 0 31.5245 31.5245 0 0 1 24.81185-9.19073z"/><path d="m36.61816 28.92544a13.90776 13.90776 0 0 1 -2.6202-7.91065 28.15944 28.15944 0 0 0 -21.99172 8.21066 1.008 1.008 0 0 0 0 1.4201l3.84039 3.85034a1.0169 1.0169 0 0 0 1.42 0 20.83841 20.83841 0 0 1 19.35153-5.57045z"/><path d="m31.9978 31.85566a17.21208 17.21208 0 0 0 -12.281 5.08042.97859.97859 0 0 0 0 1.41008l3.8504 3.86029a.99.99 0 0 0 1.41.01 9.95533 9.95533 0 0 1 14.03113.00006 1.00524 1.00524 0 0 0 1.41015-.01007l3.86029-3.86029a.99589.99589 0 0 0 0-1.41008 17.21188 17.21188 0 0 0 -12.28097-5.08041z"/><path d="m31.9978 43.21654c-7.94178.28609-7.93885 11.72248.00013 12.00094 7.9408-.27962 7.93971-11.71607-.00013-12.00094z"/></g></svg>