<?xml version="1.0" standalone="no"?>
<!DOCTYPE svg PUBLIC "-//W3C//DTD SVG 20010904//EN"
 "http://www.w3.org/TR/2001/REC-SVG-20010904/DTD/svg10.dtd">
<svg version="1.0" xmlns="http://www.w3.org/2000/svg"
 width="70" height="70" viewBox="0 0 1549.000000 1550.000000"
 preserveAspectRatio="xMidYMid meet">

<g transform="translate(0.000000,1550.000000) scale(0.100000,-0.100000)"
fill="#000000" stroke="none">
<path d="M7425 15489 c-850 -32 -1734 -217 -2520 -525 -836 -329 -1611 -799
-2277 -1381 -147 -128 -491 -465 -632 -619 -988 -1077 -1657 -2452 -1895
-3899 -72 -436 -96 -745 -95 -1195 2 -550 32 -910 115 -1385 296 -1689 1187
-3265 2494 -4410 148 -129 383 -317 508 -407 111 -80 111 -80 128 -59 40 50
118 345 189 719 124 653 151 1300 84 2052 -44 506 -99 814 -235 1329 -114 435
-141 613 -141 951 -1 350 28 518 167 985 179 604 201 745 235 1535 21 486 66
824 141 1058 85 264 186 408 504 722 261 257 355 420 355 615 0 42 -16 147
-40 265 -79 382 -70 594 35 841 123 287 480 638 818 803 291 142 550 172 737
85 173 -80 247 -254 209 -489 -33 -205 -142 -416 -407 -790 -275 -388 -360
-663 -265 -863 60 -127 164 -238 409 -440 167 -137 325 -299 394 -405 64 -98
202 -369 278 -547 98 -231 175 -442 394 -1080 122 -357 335 -543 738 -644 210
-53 341 -66 685 -66 324 0 356 3 565 51 257 59 549 180 753 311 216 139 396
335 442 478 15 48 17 78 12 174 -7 131 -27 219 -85 372 -66 173 -76 219 -76
364 0 121 2 137 33 230 43 133 143 335 228 465 251 382 577 627 910 685 234
41 432 -3 551 -122 75 -75 105 -145 110 -259 8 -165 -29 -258 -283 -714 -291
-523 -366 -693 -369 -830 -1 -89 14 -138 55 -178 83 -81 266 -60 510 57 219
104 406 232 698 474 340 284 467 436 697 837 76 131 103 168 179 246 127 128
226 171 370 162 96 -6 167 -41 234 -113 90 -99 124 -199 123 -360 -1 -129 -34
-260 -101 -400 -121 -255 -321 -504 -932 -1165 -523 -566 -695 -770 -876
-1040 -94 -140 -165 -274 -205 -390 l-33 -95 2 -212 c9 -992 305 -2122 842
-3218 194 -395 383 -725 543 -948 82 -114 193 -237 214 -237 19 0 275 327 456
580 255 358 541 864 728 1286 208 468 377 984 479 1464 112 522 160 933 168
1452 20 1224 -217 2344 -723 3419 -533 1133 -1342 2122 -2355 2881 -864 648
-1861 1109 -2909 1347 -499 113 -932 169 -1465 191 -264 10 -307 10 -600 -1z"/>
<path d="M7628 7195 c-463 -78 -705 -436 -817 -1210 -70 -482 -83 -1110 -61
-2950 15 -1262 51 -1758 161 -2198 117 -473 269 -659 659 -802 l75 -28 262 1
c573 1 1106 61 1678 188 127 28 176 44 235 76 113 62 213 132 288 203 143 135
171 228 179 600 9 417 -31 944 -138 1805 -46 372 -156 1155 -229 1625 -27 176
-70 457 -95 625 -72 495 -101 649 -156 839 -149 510 -442 845 -918 1045 -356
150 -842 228 -1123 181z"/>
<path d="M5012 4055 c-125 -112 -218 -511 -268 -1145 -21 -263 -24 -949 -6
-1205 39 -527 110 -906 218 -1160 l34 -80 133 -52 c72 -28 171 -63 219 -79 86
-27 87 -28 108 -9 33 30 87 152 110 246 29 122 48 305 56 534 11 339 -33 1082
-97 1605 -124 1025 -311 1522 -507 1345z"/>
<path d="M11364 4031 c-87 -53 -141 -189 -181 -456 -25 -171 -25 -773 0 -1025
58 -574 162 -1045 291 -1325 59 -126 109 -163 207 -152 36 5 76 24 171 83 189
118 434 291 635 449 47 37 54 48 85 135 30 87 33 105 33 210 -1 135 -22 232
-115 510 -141 423 -376 909 -588 1215 -102 146 -255 301 -341 343 -77 38 -148
43 -197 13z"/>
</g>
</svg>
