<svg id="Layer_1" enable-background="new 0 0 480 480" height="512" viewBox="0 0 480 480" width="512" xmlns="http://www.w3.org/2000/svg"><path d="m177.525 72.994c-3.006.355-5.901-1.096-7.548-3.635-8.919-13.751-24.405-22.859-41.977-22.859h-3.67c-27.843 0-50.291 22.555-50.25 50.31l.41 336.69h8.238c4.262 0 7.982 3.218 8.255 7.471.299 4.66-3.388 8.529-7.983 8.529h-74.728c-4.262 0-7.982-3.218-8.255-7.471-.299-4.66 3.388-8.529 7.983-8.529h50.49l-.41-336.67c-.041-36.63 29.581-66.33 66.25-66.33h3.67c23.309 0 43.838 12.148 55.585 30.442 2.973 4.631.459 11.281-6.06 12.052zm8.475 15.506c-30.88 0-56 25.12-56 56v14c0 4.42 3.58 8 8 8h96c4.42 0 8-3.58 8-8v-14c0-30.88-25.12-56-56-56zm194.059 352.766c-.214-7.007-.079-22.009-.061-58.76.002-4.42-3.58-8.006-8-8.006h-157.996c-4.42 0-8.002 3.586-8 8.006.019 36.755.154 51.755-.06 58.761-.138 4.51 3.484 8.234 7.996 8.234h158.125c4.512-.001 8.133-3.725 7.996-8.235zm64.071-132.766h-12.26c-19.78 0-35.87 16.09-35.87 35.87v97.13c0 4.42 3.58 8 8 8h40.13c19.78 0 35.87-16.09 35.87-35.87v-69.26c0-19.78-16.09-35.87-35.87-35.87zm-290 0h-12.26c-19.78 0-35.87 16.09-35.87 35.87v69.26c0 19.78 16.09 35.87 35.87 35.87h40.13c4.42 0 8-3.58 8-8v-97.13c0-19.78-16.09-35.87-35.87-35.87zm122.87-95h-94.16c-23.66 0-42.84 19.18-42.84 42.84v28.16c0 4.417 3.577 7.998 7.994 8 1.633 0 3.643.001 6.128.001 28.65 0 51.878 23.224 51.878 51.874v6.126c0 4.418 3.582 8 8 8h63c4.418 0 8-3.582 8-8v-129c0-4.419-3.582-8.001-8-8.001zm124.16 0h-92.16c-4.418 0-8 3.582-8 8v129c0 4.418 3.582 8 8 8h63c4.418 0 8-3.582 8-8v-6.13c0-28.576 23.243-51.87 51.87-51.87h4.13c4.418 0 8-3.582 8-8v-28.16c0-23.66-19.18-42.84-42.84-42.84z"/></svg>