<svg fill="none" height="512" viewBox="0 0 32 32" width="512" xmlns="http://www.w3.org/2000/svg"><g clip-rule="evenodd" fill="rgb(0,0,0)" fill-rule="evenodd"><path d="m5.29289 21.2929c.39053-.3905 1.02369-.3905 1.41422 0l3.29289 3.2929 3.2929-3.2929c.3905-.3905 1.0237-.3905 1.4142 0s.3905 1.0237 0 1.4142l-4 4c-.3905.3905-1.02368.3905-1.41421 0l-4-4c-.39052-.3905-.39052-1.0237 0-1.4142z"/><path d="m10 5c.5523 0 1 .44772 1 1v20c0 .5523-.4477 1-1 1-.55228 0-1-.4477-1-1v-20c0-.55228.44772-1 1-1z"/><path d="m21.2929 5.29289c.3905-.39052 1.0237-.39052 1.4142 0l4 4c.3905.39053.3905 1.02371 0 1.41421s-1.0237.3905-1.4142 0l-3.2929-3.29289-3.2929 3.29289c-.3905.3905-1.0237.3905-1.4142 0s-.3905-1.02368 0-1.41421z"/><path d="m22 5c.5523 0 1 .44772 1 1v20c0 .5523-.4477 1-1 1s-1-.4477-1-1v-20c0-.55228.4477-1 1-1z"/></g></svg>