<?xml version="1.0" encoding="UTF-8"?>
<svg xmlns="http://www.w3.org/2000/svg" xmlns:xlink="http://www.w3.org/1999/xlink" version="1.1" id="Capa_1" x="0px" y="0px" viewBox="0 0 512 512" style="enable-background:new 0 0 512 512;" xml:space="preserve" width="512" height="512">
<g id="Credit_Card">
	<path style="fill:none;stroke:#000000;stroke-width:40;stroke-linecap:round;stroke-linejoin:round;stroke-miterlimit:10;" d="&#10;&#9;&#9;M412,416c0,22.091-17.909,40-40,40H60c-22.091,0-40-17.909-40-40V216c0-22.091,17.909-40,40-40h312c22.091,0,40,17.909,40,40V416z"/>
	<path style="fill:none;stroke:#000000;stroke-width:40;stroke-linecap:round;stroke-linejoin:round;stroke-miterlimit:10;" d="&#10;&#9;&#9;M100,96c0-22.091,17.909-40,40-40h312c22.091,0,40,17.909,40,40v200c0,22.091-17.909,40-40,40h-40"/>
	
		<line style="fill:none;stroke:#000000;stroke-width:40;stroke-linecap:round;stroke-linejoin:round;stroke-miterlimit:10;" x1="100" y1="256" x2="412" y2="256"/>
	
		<line style="fill:none;stroke:#000000;stroke-width:40;stroke-linecap:round;stroke-linejoin:round;stroke-miterlimit:10;" x1="252" y1="376" x2="332" y2="376"/>
</g>















</svg>
