<svg height="512" viewBox="0 0 64 64" width="512" xmlns="http://www.w3.org/2000/svg"><g fill-rule="evenodd"><path d="m48 64h-32a15.9982 15.9982 0 0 1 -16-16v-32a15.9982 15.9982 0 0 1 16-16h32a15.9982 15.9982 0 0 1 16 16v32a15.9982 15.9982 0 0 1 -16 16" fill="#2d2d2d"/><path d="m30 18h18a9.0006 9.0006 0 0 0 .92-17.954c-.31-.017-.61-.046-.92-.046h-32a15.9982 15.9982 0 0 0 -16 16v32a30 30 0 0 1 30-30" fill="#464646"/><path d="m48 32a16 16 0 1 0 16 16v-32a15.9982 15.9982 0 0 1 -16 16" fill="#141414"/><path d="m18.36 14.357a1.8592 1.8592 0 0 1 .65-.596 1.9868 1.9868 0 0 1 2 .012l20.92 12.301s-3.61 6.045-5.2 8.7a1.0035 1.0035 0 0 1 -.78.485.9926.9926 0 0 1 -.85-.365c-3.6-4.416-16.74-20.537-16.74-20.537z" fill="#00ff64"/><path d="m41.93 26.074 7.14 4.202a1.9959 1.9959 0 0 1 0 3.448l-7.14 4.202h-3.48a3.4714 3.4714 0 0 1 -2.45-5.924z" fill="#ffc800"/><path d="m41.93 37.926-20.92 12.301a1.9868 1.9868 0 0 1 -2 .012 1.8592 1.8592 0 0 1 -.65-.596s9.79-12.297 13.88-17.432a2.5246 2.5246 0 0 1 3.76-.213v.002z" fill="#ff003c"/><path d="m36 32-17.64 17.643a1.9886 1.9886 0 0 1 -.36-1.14v-33.006a1.9886 1.9886 0 0 1 .36-1.14z" fill="#00d2ff"/></g></svg>