<svg id="Layer_1" enable-background="new 0 0 512.367 512.367" height="512" viewBox="0 0 512.367 512.367" width="512" xmlns="http://www.w3.org/2000/svg"><path d="m29.106 335.558c8.519-2.351 13.519-11.161 11.168-19.68-43.543-157.804 91.712-307.997 253.589-280.598 8.702 1.477 16.971-4.392 18.446-13.104 1.476-8.712-4.392-16.971-13.104-18.446-185.496-31.418-339.384 140.884-289.778 320.66 2.347 8.506 11.146 13.521 19.679 11.168z"/><path d="m508.63 213.163c-1.476-8.712-9.737-14.579-18.447-13.104-8.712 1.476-14.579 9.734-13.104 18.446 27.436 162.023-123.002 297.068-280.599 253.579-8.521-2.351-17.329 2.65-19.68 11.168-2.351 8.519 2.649 17.329 11.168 19.68 180.462 49.792 351.965-104.909 320.662-289.769z"/><path d="m424.224 176.134c48.523 0 88-39.477 88-88s-39.477-88-88-88-88 39.477-88 88 39.477 88 88 88zm0-144c30.879 0 56 25.121 56 56s-25.121 56-56 56-56-25.121-56-56 25.122-56 56-56z"/><path d="m88.224 352.134c-39.701 0-72 32.299-72 72s32.299 72 72 72 72-32.299 72-72-32.298-72-72-72zm0 112c-22.056 0-40-17.944-40-40s17.944-40 40-40 40 17.944 40 40-17.944 40-40 40z"/><path d="m176.224 160.134c0 8.837 7.163 16 16 16h128c8.837 0 16-7.163 16-16s-7.163-16-16-16h-128c-8.836 0-16 7.164-16 16z"/><path d="m192.224 232.134h48v120c0 8.837 7.163 16 16 16s16-7.163 16-16v-120h48c8.837 0 16-7.163 16-16s-7.163-16-16-16h-128c-8.837 0-16 7.163-16 16s7.164 16 16 16z"/></svg>