<svg xmlns="http://www.w3.org/2000/svg" version="1.1" xmlns:xlink="http://www.w3.org/1999/xlink" width="512" height="512" x="0" y="0" viewBox="0 0 32 32" style="enable-background:new 0 0 512 512" xml:space="preserve"><g><path d="M16 13.852c-3.942 0-7.148 3.207-7.148 7.148s3.207 7.148 7.148 7.148 7.148-3.207 7.148-7.148-3.206-7.148-7.148-7.148zm0 13.296c-3.39 0-6.148-2.758-6.148-6.148S12.61 14.852 16 14.852 22.148 17.61 22.148 21 19.39 27.148 16 27.148z" fill="#ffffff" opacity="1" data-original="#000000"></path><path d="M19.281 18.96h-6.562a.5.5 0 0 0 0 1H15.5v5.202a.5.5 0 0 0 1 0V19.96h2.781a.5.5 0 0 0 0-1zM19.281 17.237h-6.562a.5.5 0 0 0 0 1h6.562a.5.5 0 0 0 0-1z" fill="#ffffff" opacity="1" data-original="#000000"></path><path d="M16 11.5c-5.238 0-9.5 4.262-9.5 9.5s4.262 9.5 9.5 9.5 9.5-4.262 9.5-9.5-4.262-9.5-9.5-9.5zm0 18c-4.687 0-8.5-3.813-8.5-8.5s3.813-8.5 8.5-8.5 8.5 3.813 8.5 8.5-3.813 8.5-8.5 8.5zM26.917 4.52a.497.497 0 0 0-.834 0l-3.5 5.294a.5.5 0 0 0 .417.776h1v4.206a.5.5 0 0 0 .5.5h4a.5.5 0 0 0 .5-.5V10.59h1a.5.5 0 0 0 .417-.776zM28.5 9.589a.5.5 0 0 0-.5.5v4.206h-3v-4.206a.5.5 0 0 0-.5-.5h-.57l2.57-3.888 2.57 3.888zM8 14.795v-4.206h1a.5.5 0 0 0 .417-.776l-3.5-5.294a.499.499 0 0 0-.834.001l-3.5 5.294A.5.5 0 0 0 2 10.59h1v4.206a.5.5 0 0 0 .5.5h4a.502.502 0 0 0 .5-.501zm-1-4.706v4.206H4v-4.206a.5.5 0 0 0-.5-.5h-.57L5.5 5.701l2.57 3.888H7.5a.5.5 0 0 0-.5.5zM14 10.5h4a.5.5 0 0 0 .5-.5V7.794h1a.5.5 0 0 0 .417-.776l-3.5-5.294a.499.499 0 0 0-.834.001l-3.5 5.294a.5.5 0 0 0 .417.776h1V10a.5.5 0 0 0 .5.5zm-.57-3.706L16 2.906l2.57 3.888H18a.5.5 0 0 0-.5.5V9.5h-3V7.294a.5.5 0 0 0-.5-.5z" fill="#ffffff" opacity="1" data-original="#000000"></path></g></svg>