<svg id="Layer_1" enable-background="new 0 0 32 32" viewBox="0 0 32 32" xmlns="http://www.w3.org/2000/svg"><path d="m16 13.852c-3.942 0-7.148 3.207-7.148 7.148s3.207 7.148 7.148 7.148 7.148-3.207 7.148-7.148-3.206-7.148-7.148-7.148zm0 13.296c-3.39 0-6.148-2.758-6.148-6.148s2.758-6.148 6.148-6.148 6.148 2.758 6.148 6.148-2.758 6.148-6.148 6.148z"/><path d="m19.281 18.96h-6.562c-.276 0-.5.224-.5.5s.224.5.5.5h2.781v5.202c0 .276.224.5.5.5s.5-.224.5-.5v-5.202h2.781c.276 0 .5-.224.5-.5s-.224-.5-.5-.5z"/><path d="m19.281 17.237h-6.562c-.276 0-.5.224-.5.5s.224.5.5.5h6.562c.276 0 .5-.224.5-.5s-.224-.5-.5-.5z"/><path d="m16 11.5c-5.238 0-9.5 4.262-9.5 9.5s4.262 9.5 9.5 9.5 9.5-4.262 9.5-9.5-4.262-9.5-9.5-9.5zm0 18c-4.687 0-8.5-3.813-8.5-8.5s3.813-8.5 8.5-8.5 8.5 3.813 8.5 8.5-3.813 8.5-8.5 8.5z"/><path d="m26.917 4.52c-.092-.141-.249-.225-.417-.225s-.325.084-.417.225l-3.5 5.294c-.102.153-.11.35-.023.512s.256.264.44.264h1v4.206c0 .276.224.5.5.5h4c.276 0 .5-.224.5-.5v-4.206h1c.184 0 .353-.102.44-.264s.078-.358-.023-.512zm1.583 5.069c-.276 0-.5.224-.5.5v4.206h-3v-4.206c0-.276-.224-.5-.5-.5h-.57l2.57-3.888 2.57 3.888z"/><path d="m8 14.795v-4.206h1c.184 0 .353-.102.44-.264s.078-.358-.023-.512l-3.5-5.294c-.092-.14-.249-.224-.417-.224s-.325.084-.417.225l-3.5 5.294c-.102.153-.11.35-.023.512s.256.264.44.264h1v4.206c0 .276.224.5.5.5h4c.276-.001.5-.225.5-.501zm-1-4.706v4.206h-3v-4.206c0-.276-.224-.5-.5-.5h-.57l2.57-3.888 2.57 3.888h-.57c-.276 0-.5.224-.5.5z"/><path d="m14 10.5h4c.276 0 .5-.224.5-.5v-2.206h1c.184 0 .353-.102.44-.264s.078-.358-.023-.512l-3.5-5.294c-.092-.14-.249-.224-.417-.224s-.325.084-.417.225l-3.5 5.294c-.102.153-.11.35-.023.512s.256.264.44.264h1v2.205c0 .276.224.5.5.5zm-.57-3.706 2.57-3.888 2.57 3.888h-.57c-.276 0-.5.224-.5.5v2.206h-3v-2.206c0-.276-.224-.5-.5-.5z"/></svg>