<?xml version="1.0" encoding="UTF-8"?>
<svg xmlns="http://www.w3.org/2000/svg" id="Icons" viewBox="0 0 60 60" width="512" height="512"><path d="M8.706,35.139a1.817,1.817,0,0,0-1.942.392L5.525,36.77A1.8,1.8,0,0,0,5,38.159a1.759,1.759,0,0,0,.675,1.28l5.207,4.132q-.262.311-.49.575l-.066.078a3.14,3.14,0,0,0-.7,2.429,3.183,3.183,0,0,0,1.343,2.189,3.059,3.059,0,0,0,2.03.526V55a5.006,5.006,0,0,0,5,5H44a5.006,5.006,0,0,0,5-5V48.9a2.028,2.028,0,0,0,.419.071,1.94,1.94,0,0,0,1.517-.574l1.533-1.534A1.978,1.978,0,0,0,52.9,44.69L49,35.217V18.331c.65-.631,1.274-1.243,1.848-1.816,3.57-3.572,4.225-6.929,4.145-9.116A3.532,3.532,0,0,0,51.6,4.007a9.717,9.717,0,0,0-2.674.276A4.992,4.992,0,0,0,44,0H18a5.006,5.006,0,0,0-5,5V6.041a1.978,1.978,0,0,0-.861.49L10.605,8.064a1.985,1.985,0,0,0,.174,2.955L13,12.781V36.9ZM44,58H18a3,3,0,0,1-3-3V48.479l.429-.365,4.12,5.193A1.773,1.773,0,0,0,20.841,54c.04,0,.08,0,.12,0a1.793,1.793,0,0,0,1.269-.525l1.239-1.239a1.8,1.8,0,0,0,.385-1.951l-2.84-6.916c3.519-3,8.532-7.307,13.689-11.882L47,46.984V55A3,3,0,0,1,44,58Zm3-27.638-3-7.287c1.083-1.006,2.068-1.934,3-2.823ZM25,2H37V3a1,1,0,0,1-1,1H26a1,1,0,0,1-1-1ZM18,2h5V3a3,3,0,0,0,3,3H36a3,3,0,0,0,3-3V2h5a3,3,0,0,1,2.994,2.944,15.185,15.185,0,0,0-4.509,3.208c-1.858,1.86-4.008,4.1-6.56,6.85L15,6.382V5A3,3,0,0,1,18,2ZM13.546,7.946l22.259,9.169a1,1,0,0,0,1.114-.245c2.743-2.96,5.026-5.349,6.98-7.3,3.063-3.061,5.845-3.619,7.629-3.561A1.545,1.545,0,0,1,53,7.472c.065,1.79-.5,4.566-3.561,7.629-1.955,1.954-4.344,4.237-7.3,6.98a1,1,0,0,0-.245,1.114L51.052,45.45l-1.5,1.527L35.612,29.415a1,1,0,0,0-.7-.374.987.987,0,0,0-.751.249c-5.694,5.067-11.3,9.881-15,13.026a1,1,0,0,0-.277,1.142l3.065,7.465-.972.972-4.621-5.823a1,1,0,0,0-.673-.372,1.014,1.014,0,0,0-.11-.006.992.992,0,0,0-.627.222c-.521.42-.975.807-1.36,1.137a1.24,1.24,0,0,1-1.48.147,1.154,1.154,0,0,1-.194-1.754c.336-.394.734-.859,1.167-1.4a1,1,0,0,0-.156-1.411l-5.823-4.62.975-.975,7.462,3.067a1,1,0,0,0,1.142-.277c3.145-3.7,7.959-9.3,13.026-15a1,1,0,0,0-.125-1.448L12.02,9.479ZM15,14.368,27.513,24.3c-4.575,5.157-8.885,10.169-11.882,13.688L15,37.726Z"/><path d="M38,54H24a1,1,0,0,0,0,2H38a1,1,0,0,0,0-2Z"/></svg>
