<svg xmlns="http://www.w3.org/2000/svg" fill-rule="evenodd" viewBox="0 0 100 100">
    <path d="M69.35 36H59V5.5A1.5 1.5 0 0 0 57.5 4h-14A1.5 1.5 0 0 0 42 5.5V36H31.65A4.66 4.66 0 0 0 27 40.66v44.68A4.66 4.66 0 0 0 31.65 90H35v5.5a1.5 1.5 0 0 0 3 0V90h25v5.5a1.5 1.5 0 0 0 3 0V90h3.35A4.66 4.66 0 0 0 74 85.34V40.66A4.66 4.66 0 0 0 69.35 36ZM45 7h11v29H45Zm26 78.34A1.66 1.66 0 0 1 69.35 87h-37.7A1.66 1.66 0 0 1 30 85.34V40.66A1.66 1.66 0 0 1 31.65 39h37.7A1.66 1.66 0 0 1 71 40.66Z"/>
    <path d="M64.5 59h-28a1.5 1.5 0 0 0-1.5 1.5v20a1.5 1.5 0 0 0 1.5 1.5h28a1.5 1.5 0 0 0 1.5-1.5v-20a1.5 1.5 0 0 0-1.5-1.5ZM63 79H38V62h25Z"/>
</svg>
