<?xml version="1.0" standalone="no"?>
<!DOCTYPE svg PUBLIC "-//W3C//DTD SVG 20010904//EN"
 "http://www.w3.org/TR/2001/REC-SVG-20010904/DTD/svg10.dtd">
<svg version="1.0" xmlns="http://www.w3.org/2000/svg"
 width="2084.000000pt" height="2084.000000pt" viewBox="0 0 2084.000000 2084.000000"
 preserveAspectRatio="xMidYMid meet">
<metadata>
Created by potrace 1.14, written by Peter Selinger 2001-2017
</metadata>
<g transform="translate(0.000000,2084.000000) scale(0.100000,-0.100000)"
fill="#000000" stroke="none">
<path d="M2765 20829 c-249 -22 -546 -89 -782 -175 -70 -26 -208 -88 -305
-136 -593 -296 -1059 -763 -1357 -1358 -181 -363 -280 -717 -311 -1121 -8
-105 -10 -2215 -8 -7714 l3 -7570 22 -137 c113 -704 411 -1287 899 -1758 480
-462 1065 -742 1739 -832 149 -20 15362 -19 15510 0 494 66 950 241 1352 519
348 240 661 576 882 945 69 115 190 368 236 491 75 205 136 453 167 682 19
148 20 15361 0 15510 -90 674 -370 1259 -832 1739 -471 488 -1054 786 -1758
899 l-137 22 -7610 1 c-4298 1 -7654 -2 -7710 -7z m4815 -2634 c425 -64 774
-225 1037 -478 265 -256 431 -574 497 -957 25 -140 38 -493 34 -850 -5 -376 7
-1127 22 -1330 17 -223 45 -319 110 -373 89 -76 226 -60 680 80 265 81 437
125 600 152 544 92 1102 73 1845 -60 1018 -182 1787 -523 2490 -1103 153 -126
480 -454 614 -615 563 -677 936 -1395 1135 -2188 76 -304 115 -534 160 -948
60 -548 79 -878 79 -1350 1 -650 -41 -1044 -158 -1502 -397 -1550 -1532 -2951
-2870 -3543 -604 -268 -1362 -423 -2420 -494 -945 -64 -2267 -39 -3908 76
-208 14 -213 17 -211 110 1 75 39 193 114 359 29 63 112 249 185 414 601 1360
1100 2268 1734 3158 274 385 500 626 880 937 146 120 390 303 524 394 159 107
290 133 398 79 106 -55 146 -158 135 -358 -3 -66 -11 -212 -16 -325 -12 -233
4 -1187 22 -1255 17 -69 54 -121 101 -144 110 -53 189 -9 309 173 161 245 239
462 353 986 31 140 94 404 140 585 88 345 135 562 155 705 30 218 79 320 225
466 139 140 275 226 560 354 173 79 247 124 314 195 130 137 145 308 46 505
-70 138 -154 200 -274 200 -98 0 -170 -24 -386 -127 -459 -220 -637 -273 -911
-273 -180 0 -285 20 -524 100 -248 84 -411 126 -855 224 -389 86 -594 143
-802 222 -152 57 -223 68 -314 49 -50 -11 -138 -58 -186 -99 -96 -83 -164
-228 -143 -304 16 -61 71 -107 267 -224 182 -109 257 -147 488 -245 316 -134
471 -228 611 -367 100 -100 209 -256 220 -313 11 -57 -26 -83 -188 -133 -708
-219 -1362 -470 -2238 -860 -674 -301 -1143 -552 -1825 -979 -214 -133 -880
-568 -1007 -658 -89 -62 -151 -92 -191 -93 -42 0 -82 45 -97 110 -10 44 -14
1191 -18 5450 -3 2967 -5 5503 -5 5635 0 213 3 249 22 320 45 170 125 280 243
335 82 38 161 50 333 50 185 0 301 11 720 70 307 43 438 59 615 74 94 8 429
-4 530 -19z"/>
</g>
</svg>
